<?xml version="1.0" encoding="utf-8"?>
<!-- Generator: Adobe Illustrator 16.0.4, SVG Export Plug-In . SVG Version: 6.00 Build 0)  -->
<!DOCTYPE svg PUBLIC "-//W3C//DTD SVG 1.1//EN" "http://www.w3.org/Graphics/SVG/1.1/DTD/svg11.dtd">
<svg version="1.1" id="レイヤー_1" xmlns="http://www.w3.org/2000/svg" xmlns:xlink="http://www.w3.org/1999/xlink" x="0px"
	 y="0px" width="1094px" height="128px" viewBox="0 0 1094 128" enable-background="new 0 0 1094 128" xml:space="preserve">
<path d="M98.25,87.425c0,4.347,0,10.573,0.235,13.862c-6.814,1.997-22.086,3.877-30.074,3.877c-7.636,0-21.264-0.705-31.132-5.64
	C22.477,92.124,13.9,78.849,13.9,64.164c0-16.564,8.224-28.429,18.562-35.478C43.152,21.402,55.018,19.17,67,19.17
	c10.103,0,22.438,1.527,26.315,2.937c0.47-1.88,1.762-8.458,2.114-10.926l2.702-0.587c-0.705,4.582-1.997,25.375-1.645,36.3
	l-2.702-1.41c-0.235-3.994-0.822-8.106-1.292-10.808c-3.054-3.642-11.395-11.395-30.544-11.395
	c-20.441,0-34.068,15.154-34.068,33.951c0,19.149,16.329,43.702,41.705,43.702c3.054,0,9.985-0.47,14.919-3.055
	c0.235-1.762,0.353-5.756,0.353-11.63v-6.227c0-3.642-0.118-7.283-0.47-9.398c-2.349-0.234-9.633-0.822-11.865-1.292l-0.705-2.467
	c6.109,0.235,15.154,0.353,19.266,0.353c5.639,0,17.034-0.117,18.444-0.353l-0.587,2.467c-1.058,0.117-7.636,0.705-10.221,1.292
	c-0.353,1.998-0.47,9.751-0.47,13.04V87.425z"/>
<path d="M122.787,57.585c0-10.573-0.353-29.252-0.822-32.894c-2.232-0.47-9.398-1.292-12.218-1.645l-0.47-2.467
	c2.819,0.118,6.696,0.235,10.573,0.353c3.877,0,7.753,0.117,10.338,0.117c3.759,0,31.367,0,34.539-0.822
	c0.353-1.41,0.705-3.407,0.939-5.521l2.702-0.47c-0.587,2.467-2.115,20.676-2.35,24.318l-2.584-0.822c0-0.822,0.118-6.109,0-8.458
	c-2.114-3.407-20.206-4.934-26.432-4.934c-0.353,1.645-0.823,24.318-0.823,31.249v2.35c10.104,0,21.499-0.822,24.318-1.88
	c0.587-1.762,0.94-3.407,1.175-5.051l2.467-0.235c-0.353,2.114-2.467,18.208-3.055,21.968l-2.232-0.94
	c0.118-2.467,0.235-5.521,0.235-7.87c-3.642-1.88-12.805-2.585-22.908-2.585v2.35c0,7.166,0.47,32.776,0.823,36.183
	c11.748,0,22.791-0.939,28.194-3.994c1.292-4.111,1.88-7.753,2.584-10.338l2.702-0.705c-0.822,3.407-3.407,21.264-3.877,27.138
	l-2.467-0.47c0-3.172,0-5.287-0.118-7.166c-3.407-0.588-29.487-1.058-36.888-1.058c-3.994,0-13.275,0.235-17.856,0.47l0.587-2.467
	c1.88-0.117,8.929-0.822,12.101-1.645c0.47-2.115,0.822-23.73,0.822-36.653V57.585z"/>
<path d="M179.169,21.05c6.579-0.235,17.622-0.352,26.785-0.822c2.584,3.994,26.198,33.599,28.195,35.713
	c3.054,3.29,21.733,25.962,25.492,29.134c0-13.04-0.117-54.274-2.467-60.383c-2.35-0.47-8.576-1.41-11.865-1.645l-0.587-2.467
	c2.232,0.235,14.919,0.47,17.504,0.47s12.335-0.235,14.802-0.47l-0.47,2.467c-1.527,0.235-5.756,1.175-8.928,1.645
	c-1.41,4.582-1.997,21.146-2.232,24.905c-0.353,5.521-1.292,54.862-1.998,59.561c-3.524-3.289-36.065-41.234-38.767-44.289
	c-1.645-1.763-23.966-29.017-27.842-33.481c-0.353,2.349,1.057,64.025,2.584,68.254c1.762,0.587,10.573,1.409,12.805,1.645
	l0.352,2.467c-2.114-0.234-14.332-0.47-17.387-0.47c-3.407,0-12.57,0.235-15.977,0.47l0.353-2.467
	c3.289-0.47,7.048-0.822,9.75-1.645c1.997-4.935,3.289-70.839,3.289-74.716c-2.702-0.587-8.458-1.175-12.922-1.41L179.169,21.05z"/>
<path d="M296.287,57.585c0-10.573-0.353-29.252-0.822-32.894c-2.232-0.47-9.398-1.292-12.218-1.645l-0.47-2.467
	c2.819,0.118,6.696,0.235,10.573,0.353c3.877,0,7.753,0.117,10.338,0.117c3.759,0,31.367,0,34.539-0.822
	c0.353-1.41,0.705-3.407,0.939-5.521l2.702-0.47c-0.587,2.467-2.115,20.676-2.35,24.318l-2.584-0.822c0-0.822,0.118-6.109,0-8.458
	c-2.114-3.407-20.206-4.934-26.432-4.934c-0.353,1.645-0.823,24.318-0.823,31.249v2.35c10.104,0,21.499-0.822,24.318-1.88
	c0.587-1.762,0.94-3.407,1.175-5.051l2.467-0.235c-0.353,2.114-2.467,18.208-3.055,21.968l-2.232-0.94
	c0.118-2.467,0.235-5.521,0.235-7.87c-3.642-1.88-12.805-2.585-22.908-2.585v2.35c0,7.166,0.47,32.776,0.823,36.183
	c11.748,0,22.791-0.939,28.194-3.994c1.292-4.111,1.88-7.753,2.584-10.338l2.702-0.705c-0.822,3.407-3.407,21.264-3.877,27.138
	l-2.467-0.47c0-3.172,0-5.287-0.118-7.166c-3.407-0.588-29.487-1.058-36.888-1.058c-3.994,0-13.275,0.235-17.856,0.47l0.587-2.467
	c1.88-0.117,8.929-0.822,12.101-1.645c0.47-2.115,0.822-23.73,0.822-36.653V57.585z"/>
<path d="M353.371,116.149c0.235-1.645,1.88-14.685,1.88-19.267c0-3.054,0.705-15.741,0.353-18.562l2.702,0.705
	c-0.117,1.527,0.47,8.224,0.823,10.338c3.172,7.519,10.103,12.806,18.209,12.806c9.28,0,16.682-6.109,16.682-14.803
	c0-9.516-7.401-14.215-15.037-19.148c-11.513-7.519-20.676-14.098-20.676-27.373c0-9.163,6.814-20.676,24.201-20.676
	c6.931,0,13.04,1.41,15.859,2.115c0.822-2.82,1.41-6.344,2.114-9.516l2.702-0.352c-1.645,11.63-2.819,22.556-2.819,32.188
	l-2.702-1.175c0-3.994-0.235-6.813-0.47-8.928c-1.292-4.229-7.401-10.573-15.625-10.573c-10.103,0-14.333,6.461-14.333,11.748
	c0,7.636,7.989,11.748,16.917,17.387c9.75,6.109,19.619,12.688,19.619,27.49c0,16.329-12.922,25.61-28.899,25.61
	c-5.639,0-12.922-1.175-16.212-2.938c-0.587,2.232-1.762,7.871-2.584,12.218L353.371,116.149z"/>
<path d="M444.357,62.402c0,15.271,0.118,34.891,0.587,37.24c2.937,0.705,9.986,1.409,12.335,1.645l0.587,2.467
	c-2.584-0.234-14.802-0.47-22.086-0.47c-3.994,0-14.802,0.235-18.326,0.47l0.47-2.467c1.997-0.117,9.985-1.175,12.453-1.645
	c0.47-4.935,0.587-26.668,0.587-38.181v-6.931c0-3.877-0.118-25.845-0.587-29.839c-2.35-0.47-10.103-1.41-12.335-1.645l-0.587-2.467
	c2.232,0.235,13.04,0.47,22.32,0.47c5.992,0,16.095-0.235,18.092-0.47l-0.587,2.467c-2.35,0.235-8.106,1.175-12.335,1.645
	c-0.47,2.35-0.587,15.977-0.587,30.427V62.402z"/>
<path d="M468.905,115.149c0.235-1.645,1.88-14.685,1.88-19.267c0-3.054,0.705-15.741,0.353-18.562l2.702,0.705
	c-0.117,1.527,0.47,8.224,0.823,10.338c3.172,7.519,10.103,12.806,18.209,12.806c9.28,0,16.682-6.109,16.682-14.803
	c0-9.516-7.401-14.215-15.037-19.148c-11.513-7.519-20.676-14.098-20.676-27.373c0-9.163,6.814-20.676,24.201-20.676
	c6.931,0,13.04,1.41,15.859,2.115c0.822-2.82,1.41-6.344,2.114-9.516l2.702-0.352c-1.645,11.63-2.819,22.556-2.819,32.188
	l-2.702-1.175c0-3.994-0.235-6.813-0.47-8.928c-1.292-4.229-7.401-10.573-15.625-10.573c-10.103,0-14.333,6.461-14.333,11.748
	c0,7.636,7.989,11.748,16.917,17.387c9.75,6.109,19.619,12.688,19.619,27.49c0,16.329-12.922,25.61-28.899,25.61
	c-5.639,0-12.922-1.175-16.212-2.938c-0.587,2.232-1.762,7.871-2.584,12.218L468.905,115.149z"/>
<path d="M576.751,53.708c0-4.229-0.118-26.785-0.588-29.017c-1.997-0.47-9.985-1.175-12.57-1.41l-0.353-2.467l25.376-0.117
	c11.16,0,25.14,0.117,33.128,3.289c6.227,2.467,10.104,6.931,10.104,13.393c0,7.401-7.519,17.152-16.564,22.204
	c1.292,2.937,20.206,33.716,32.424,46.638l-5.169,0.823c-8.224-3.76-39.473-39.825-41.353-42.292
	c-4.464,0.353-9.28,0.704-11.277,0.704v3.055c0,7.636,0.234,25.728,0.587,31.132c1.997,0.587,9.751,1.409,12.336,1.645l0.47,2.467
	c-2.938-0.234-14.803-0.47-20.206-0.47c-4.817,0-17.152,0.235-19.854,0.47l0.471-2.467c1.645-0.117,9.163-0.822,12.452-1.645
	c0.47-3.407,0.588-26.433,0.588-38.768V53.708z M589.908,61.814c4.229,0,9.28-0.353,14.332-2.231
	c5.052-1.88,13.393-7.284,13.393-18.914c0-7.519-6.813-16.682-27.138-16.682c-0.353,4.817-0.587,25.845-0.587,34.186V61.814z"/>
<path d="M656.738,57.585c0-10.573-0.353-29.252-0.822-32.894c-2.231-0.47-9.397-1.292-12.218-1.645l-0.47-2.467
	c2.819,0.118,6.696,0.235,10.573,0.353c3.877,0,7.754,0.117,10.338,0.117c3.76,0,31.366,0,34.538-0.822
	c0.353-1.41,0.705-3.407,0.94-5.521l2.702-0.47c-0.588,2.467-2.115,20.676-2.35,24.318l-2.585-0.822c0-0.822,0.117-6.109,0-8.458
	c-2.114-3.407-20.206-4.934-26.433-4.934c-0.353,1.645-0.822,24.318-0.822,31.249v2.35c10.104,0,21.499-0.822,24.318-1.88
	c0.587-1.762,0.939-3.407,1.175-5.051l2.467-0.235c-0.353,2.114-2.467,18.208-3.055,21.968l-2.231-0.94
	c0.117-2.467,0.234-5.521,0.234-7.87c-3.642-1.88-12.805-2.585-22.908-2.585v2.35c0,7.166,0.47,32.776,0.822,36.183
	c11.748,0,22.791-0.939,28.195-3.994c1.292-4.111,1.879-7.753,2.584-10.338l2.702-0.705c-0.822,3.407-3.407,21.264-3.877,27.138
	l-2.467-0.47c0-3.172,0-5.287-0.117-7.166c-3.407-0.588-29.487-1.058-36.889-1.058c-3.994,0-13.274,0.235-17.856,0.47l0.588-2.467
	c1.879-0.117,8.928-0.822,12.1-1.645c0.47-2.115,0.822-23.73,0.822-36.653V57.585z"/>
<path d="M791.356,46.66c0-2.232-0.352-7.753-0.704-9.75c-2.232-5.169-13.158-13.627-28.312-13.627
	c-21.381,0-34.891,15.507-34.891,33.833c0,22.908,18.914,42.292,43.701,42.292c8.929,0,19.502-1.409,27.843-6.344l-1.645,5.052
	c-2.702,2.232-14.567,7.049-33.012,7.049c-4.347,0-17.151-0.47-26.667-5.169c-15.272-7.519-24.318-20.911-24.318-35.948
	c0-16.212,8.224-28.195,18.562-35.126c12.218-8.223,23.144-9.75,35.009-9.75c10.338,0,21.263,2.115,24.553,3.054
	c0.705-1.527,2.114-9.045,2.467-10.456l2.702-0.587c-1.763,12.923-2.467,25.141-2.585,36.301L791.356,46.66z"/>
<path d="M812.668,92.007c-8.576-8.812-11.278-17.387-11.278-28.43c0-23.261,19.149-44.407,51.573-44.407
	c12.452,0,22.32,1.997,32.541,9.516c9.28,6.813,14.215,18.209,14.215,29.134c0,28.782-21.851,47.344-50.75,47.344
	C837.104,105.164,823.593,103.167,812.668,92.007z M885.387,66.396c0-24.905-17.27-42.762-36.771-42.762
	c-16.095,0-33.717,10.808-33.717,35.008c0,21.028,16.917,41.705,39.825,41.705C871.524,100.348,885.387,85.192,885.387,66.396z"/>
<path d="M914.21,54.708c0-4.229-0.117-26.785-0.587-29.017c-1.997-0.47-9.986-1.175-12.57-1.41l-0.353-2.467l25.375-0.117
	c11.16,0,25.141,0.117,33.129,3.289c6.227,2.467,10.103,6.931,10.103,13.393c0,7.401-7.519,17.152-16.564,22.204
	c1.293,2.937,20.207,33.716,32.424,46.638l-5.169,0.823c-8.223-3.76-39.472-39.825-41.352-42.292
	c-4.464,0.353-9.281,0.704-11.278,0.704v3.055c0,7.636,0.235,25.728,0.588,31.132c1.997,0.587,9.75,1.409,12.335,1.645l0.47,2.467
	c-2.937-0.234-14.802-0.47-20.206-0.47c-4.816,0-17.151,0.235-19.854,0.47l0.47-2.467c1.645-0.117,9.163-0.822,12.453-1.645
	c0.47-3.407,0.587-26.433,0.587-38.768V54.708z M927.367,62.814c4.229,0,9.281-0.353,14.333-2.231
	c5.051-1.88,13.392-7.284,13.392-18.914c0-7.519-6.813-16.682-27.137-16.682c-0.353,4.817-0.588,25.845-0.588,34.186V62.814z"/>
<path d="M999.198,54.826c0-5.287-0.234-26.785-0.822-29.134c-3.054-0.587-9.633-1.41-12.452-1.645l-0.235-2.467
	c1.763,0.235,14.45,0.47,19.384,0.47c4.112,0,18.092-0.47,27.138-0.47c13.745,0,25.375,1.645,33.129,5.404
	c13.744,6.579,19.266,17.739,19.266,28.43c0,24.788-19.501,49.106-64.612,49.106c-6.579,0-31.484,0.117-34.304,0.234l0.47-2.467
	c2.232-0.117,9.398-0.822,12.218-1.645c0.588-1.997,0.822-22.908,0.822-36.536V54.826z M1012.591,65.164
	c0,6.344,0.353,28.43,0.822,32.659c5.169,1.997,9.751,2.114,12.806,2.114c22.438,0,43.937-13.157,43.937-38.18
	c0-9.986-3.055-19.854-12.806-27.138c-8.575-6.344-22.673-8.693-33.599-8.693c-2.701,0-7.87,0.235-10.338,0.705
	c-0.353,1.762-0.822,28.782-0.822,33.951V65.164z"/>
</svg>
