<?xml version="1.0" encoding="utf-8"?>
<!-- Generator: Adobe Illustrator 16.0.4, SVG Export Plug-In . SVG Version: 6.00 Build 0)  -->
<!DOCTYPE svg PUBLIC "-//W3C//DTD SVG 1.1//EN" "http://www.w3.org/Graphics/SVG/1.1/DTD/svg11.dtd">
<svg version="1.1" xmlns="http://www.w3.org/2000/svg" xmlns:xlink="http://www.w3.org/1999/xlink" x="0px" y="0px"
	 width="167.052px" height="75.665px" viewBox="0 0 167.052 75.665" enable-background="new 0 0 167.052 75.665"
	 xml:space="preserve">
<g id="レイヤー_4">
</g>
<g id="レイヤー_3">
</g>
<g id="レイヤー_2">
</g>
<g id="レイヤー_5">
</g>
<g id="レイヤー_1">
</g>
<g id="レイヤー_6">
	<polyline fill="none" stroke="#000000" stroke-miterlimit="10" points="138.861,44.893 82.861,74.893 26.861,44.893 	"/>
	<g>
		<path d="M6.133,16.486c0,2.381,0.235,2.617,2.512,2.695v0.68h-8.27v-0.68c2.146-0.078,2.355-0.314,2.355-2.695V3.689
			c0-2.381-0.209-2.617-2.25-2.721V0.287h7.876c5.338,0,7.667,1.648,7.667,5.443c0,2.67-1.099,4.371-3.35,5.207
			c-1.151,0.42-3.062,0.682-5.26,0.682H6.133V16.486z M7.494,10.859c1.623,0,2.852-0.365,3.611-1.072
			c0.837-0.811,1.282-2.199,1.282-3.898c0-3.219-1.544-4.842-4.58-4.842H6.133v9.812H7.494z"/>
		<path d="M17.465,19.234c1.911-0.053,2.067-0.236,2.067-2.617V3.428c0-2.303-0.183-2.539-2.041-2.539V0.287L22.882,0
			c-0.104,1.936-0.157,3.611-0.157,5.365v11.252c0,2.381,0.157,2.564,2.067,2.617v0.627h-7.327V19.234z"/>
		<path d="M30,12.482c0.026,1.936,0.209,3.062,0.68,4.16c0.759,1.729,1.963,2.592,3.559,2.592c1.806,0,3.35-1.074,4.318-2.984
			l0.654,0.42c-1.309,2.486-3.062,3.584-5.757,3.584c-4.161,0-6.83-2.799-6.83-7.17c0-4.396,2.591-7.275,6.568-7.275
			c2.669,0,4.553,1.205,5.417,3.455c0.288,0.785,0.419,1.57,0.471,3.219H30z M35.81,11.723c-0.053-1.648-0.157-2.459-0.445-3.27
			c-0.497-1.389-1.229-2.043-2.25-2.043c-1.125,0-1.989,0.785-2.538,2.305c-0.288,0.811-0.445,1.648-0.55,3.008H35.81z"/>
		<path d="M54.442,19.783c-1.544,0.184-2.931,0.314-3.611,0.314c-0.837,0-1.099-0.393-1.23-1.988
			c-1.361,1.465-2.774,2.119-4.475,2.119c-2.486,0-4.03-1.492-4.03-3.848c0-2.25,1.387-3.637,4.187-4.186
			c1.282-0.236,2.669-0.42,4.292-0.498V9.996c0-2.773-0.471-3.586-2.041-3.586c-0.837,0-1.387,0.262-1.753,0.891
			c-0.262,0.445-0.34,0.863-0.418,1.857c-0.052,0.943-0.498,1.283-1.596,1.283c-1.204,0-1.832-0.42-1.832-1.203
			c0-0.916,0.602-1.807,1.623-2.436c1.099-0.68,2.512-0.994,4.292-0.994c1.806,0,3.088,0.342,3.873,1.074
			c0.707,0.68,1.021,1.621,1.021,3.244l-0.026,2.277l-0.026,2.275c-0.026,0.734-0.026,1.23-0.026,1.414
			c0,2.879,0.105,3.035,1.78,3.062V19.783z M49.574,12.299c-3.794,0.289-5.129,1.256-5.129,3.689c0,1.859,0.837,3.088,2.12,3.088
			c1.047,0,2.041-0.654,2.539-1.727c0.34-0.68,0.471-1.543,0.471-3.035V12.299z"/>
		<path d="M56.719,15.256h0.942c0.157,1.361,0.367,2.068,0.785,2.748c0.733,1.125,1.649,1.648,2.931,1.648
			c1.596,0,2.564-0.838,2.564-2.277c0-1.281-0.681-1.857-3.716-3.27c-1.544-0.682-2.198-1.1-2.827-1.779
			c-0.628-0.654-0.916-1.414-0.916-2.355c0-2.539,1.884-4.162,4.841-4.162c0.418,0,1.099,0.08,1.858,0.211
			c0.732,0.131,0.863,0.156,1.151,0.156c0.366,0,0.654-0.053,1.256-0.262l-0.235,4.58h-0.968c-0.183-2.67-1.282-4.084-3.167-4.084
			c-1.413,0-2.329,0.865-2.329,2.174c0,0.68,0.236,1.15,0.812,1.596s0.576,0.445,2.931,1.518c2.669,1.23,3.533,2.25,3.533,4.213
			c0,2.723-1.753,4.371-4.71,4.371c-0.759,0-1.125-0.053-2.669-0.314c-0.314-0.053-0.628-0.078-0.942-0.078
			c-0.393,0-0.471,0-1.335,0.156L56.719,15.256z"/>
		<path d="M72.106,12.482c0.026,1.936,0.209,3.062,0.68,4.16c0.759,1.729,1.963,2.592,3.559,2.592c1.806,0,3.35-1.074,4.318-2.984
			l0.654,0.42c-1.309,2.486-3.062,3.584-5.757,3.584c-4.161,0-6.83-2.799-6.83-7.17c0-4.396,2.591-7.275,6.568-7.275
			c2.669,0,4.553,1.205,5.417,3.455c0.288,0.785,0.419,1.57,0.471,3.219H72.106z M77.916,11.723
			c-0.053-1.648-0.157-2.459-0.445-3.27c-0.497-1.389-1.229-2.043-2.25-2.043c-1.125,0-1.989,0.785-2.538,2.305
			c-0.288,0.811-0.445,1.648-0.55,3.008H77.916z"/>
		<path d="M92.571,13.713h1.047c0.366,3.924,1.936,5.783,4.867,5.783c2.303,0,3.69-1.361,3.69-3.611
			c0-1.779-1.021-2.854-4.292-4.449c-2.224-1.072-2.826-1.414-3.428-1.857c-1.492-1.1-2.146-2.355-2.146-4.162
			c0-2.145,1.178-4.004,3.088-4.893c0.89-0.42,1.937-0.602,3.35-0.602c0.864,0,1.23,0.051,3.192,0.443
			c0.367,0.08,0.654,0.105,0.916,0.105c0.419,0,0.785-0.078,1.57-0.367l-0.209,5.863h-1.047c-0.104-1.492-0.34-2.383-0.89-3.271
			c-0.785-1.334-2.067-2.068-3.611-2.068c-2.015,0-3.402,1.389-3.402,3.402c0,0.863,0.288,1.623,0.864,2.199
			c0.654,0.627,1.308,1.02,3.402,2.014c2.329,1.074,3.454,1.779,4.344,2.67c0.89,0.916,1.361,2.119,1.361,3.637
			c0,1.779-0.654,3.299-1.832,4.215c-1.23,0.967-2.879,1.49-4.789,1.49c-1.047,0-1.675-0.078-3.533-0.445
			c-0.314-0.051-0.654-0.078-0.995-0.078c-0.445,0-0.785,0.053-1.727,0.236L92.571,13.713z"/>
		<path d="M120.101,16.617c-1.178,2.434-3.114,3.664-5.731,3.664c-4.03,0-6.726-2.854-6.726-7.066c0-2.25,0.759-4.291,2.067-5.652
			c1.151-1.125,2.774-1.754,4.658-1.754c2.905,0,5.391,1.57,5.391,3.43c0,0.783-0.707,1.281-1.779,1.281
			c-0.602,0-1.099-0.184-1.335-0.471c-0.157-0.209-0.157-0.209-0.209-1.152c-0.105-1.57-0.864-2.459-2.146-2.459
			c-1.073,0-1.989,0.654-2.408,1.674c-0.445,1.152-0.732,3.01-0.732,4.633c0,1.701,0.314,3.244,0.916,4.449
			c0.681,1.334,1.78,2.066,3.114,2.066c1.806,0,3.35-1.15,4.239-3.088L120.101,16.617z"/>
		<path d="M126.459,5.861c0.052,0.994,0.079,1.596,0.079,2.119c0,0.184,0,0.445,0,0.785c1.047-1.936,2.381-2.957,3.873-2.957
			c1.282,0,2.224,0.863,2.224,1.99c0,0.941-0.785,1.596-1.884,1.596c-0.707,0-1.046-0.236-1.229-0.838
			c-0.209-0.732-0.34-0.916-0.759-0.916c0,0-0.026,0-0.052,0c-0.497,0.027-1.021,0.471-1.465,1.23
			c-0.419,0.785-0.628,1.674-0.628,2.904v4.842c0,2.355,0.157,2.539,2.093,2.617v0.627h-7.275v-0.627
			c1.806-0.027,1.989-0.289,1.989-2.617V9.369c0-2.225-0.235-2.539-1.884-2.539V6.201L126.459,5.861z"/>
		<path d="M135.723,7.668c1.125-1.178,2.905-1.859,4.894-1.859c4.108,0,6.778,2.826,6.778,7.17c0,2.043-0.654,3.979-1.727,5.182
			c-1.204,1.336-3.114,2.121-5.182,2.121c-1.962,0-3.821-0.76-4.919-1.99c-1.152-1.281-1.806-3.139-1.806-5.154
			C133.761,10.99,134.493,8.977,135.723,7.668z M140.591,19.678c2.276,0,3.297-2.041,3.297-6.594c0-4.58-1.046-6.674-3.323-6.674
			c-1.073,0-1.989,0.551-2.434,1.52c-0.576,1.125-0.837,2.799-0.837,5.076C137.293,17.533,138.34,19.678,140.591,19.678z"/>
		<path d="M149.252,19.234c1.911-0.053,2.067-0.236,2.067-2.617V3.428c0-2.303-0.183-2.539-2.041-2.539V0.287L154.669,0
			c-0.104,1.936-0.157,3.611-0.157,5.365v11.252c0,2.381,0.157,2.564,2.067,2.617v0.627h-7.327V19.234z"/>
		<path d="M158.019,19.234c1.911-0.053,2.067-0.236,2.067-2.617V3.428c0-2.303-0.183-2.539-2.041-2.539V0.287L163.436,0
			c-0.104,1.936-0.157,3.611-0.157,5.365v11.252c0,2.381,0.157,2.564,2.067,2.617v0.627h-7.327V19.234z"/>
	</g>
</g>
<g id="レイヤー_7">
</g>
</svg>
