<?xml version="1.0" encoding="utf-8"?>
<!-- Generator: Adobe Illustrator 16.0.4, SVG Export Plug-In . SVG Version: 6.00 Build 0)  -->
<!DOCTYPE svg PUBLIC "-//W3C//DTD SVG 1.1//EN" "http://www.w3.org/Graphics/SVG/1.1/DTD/svg11.dtd">
<svg version="1.1" xmlns="http://www.w3.org/2000/svg" xmlns:xlink="http://www.w3.org/1999/xlink" x="0px" y="0px" width="360px"
	 height="160px" viewBox="0 0 360 160" enable-background="new 0 0 360 160" xml:space="preserve">
<g id="レイヤー_4">
</g>
<g id="レイヤー_3">
</g>
<g id="レイヤー_2">
</g>
<g id="レイヤー_5">
</g>
<g id="レイヤー_1">
	<rect fill="#FFFFFF" width="360" height="160"/>
	<g>
		<g>
			<path fill="#39B54A" d="M123.059,88.746c-0.104,0.009-0.214,0.014-0.328,0.019c-4.767,0.29-18.27-0.128-24.945-12.976
				c-0.551-1.059-1.054-2.198-1.505-3.433c-0.176-0.479-0.342-0.973-0.494-1.481c-0.009-0.014-0.009-0.023-0.014-0.038
				c-0.085-0.28-0.171-0.56-0.251-0.85c0,0,1.087-0.171,2.849-0.209c0.394-0.01,0.816-0.014,1.272-0.005
				c6.585,0.124,19.243,2.36,24.251,17.063c0.019,0.057,0.043,0.119,0.062,0.181C124.127,87.53,123.938,88.684,123.059,88.746"/>
			<path fill="#39B54A" d="M95.508,70.833c0,0-0.717,0.688-2.046,1.733c-0.546,0.437-1.197,0.935-1.947,1.467
				c-8.422,6.025-29.066,17.03-51.214,0.669c-0.257-0.194-0.513-0.536-0.688-0.959c-0.328-0.783-0.39-1.837,0.294-2.659
				c0.109-0.138,0.242-0.266,0.398-0.385c7.126-5.512,28.71-19.015,52.097-2.26c0.39,0.275,0.774,0.56,1.164,0.854
				c0.646,0.484,1.287,0.997,1.932,1.534C95.503,70.828,95.503,70.828,95.508,70.833"/>
			<path fill="#FFFFFF" d="M95.507,70.83c0,0-25.337-8.577-45.482-1.898c-1.27,0.421-2.36,1.245,0.083,0.989
				C57.863,69.108,76.348,67.777,95.507,70.83"/>
			<path fill="#FFFFFF" d="M118.799,84.031c-2.412-3.255-9.143-10.401-23.275-13.246c0,0,11.413,3.644,22.785,13.499
				C118.836,84.74,119.558,85.055,118.799,84.031"/>
			<path fill="#39B54A" d="M93.589,108.487c-0.622,2.265-1.348,4.662-2.179,7.197h-3.286c0.788-2.407,1.491-4.69,2.113-6.851
				c5.279-18.374,4.79-28.197,3.907-32.655c-0.114-0.551-0.228-1.021-0.337-1.415c-0.327-1.154-0.617-1.652-0.617-1.652h1.505
				c0,0,0.033,0.042,0.09,0.133c0.214,0.332,0.774,1.3,1.306,3.104c0.09,0.309,0.181,0.646,0.266,1.006
				C97.54,82.232,98.204,91.803,93.589,108.487"/>
			<path fill="#39B54A" d="M100.113,71.801c0,0.042,0,0.085-0.004,0.128c0,0.147-0.009,0.29-0.028,0.432
				c-0.01,0.081-0.024,0.156-0.038,0.237c-0.043,0.256-0.109,0.499-0.2,0.741v0.004c-0.37,1.04-1.106,1.909-2.056,2.445
				c-0.513,0.294-1.083,0.489-1.695,0.56c-0.057,0.01-0.119,0.014-0.176,0.019c-0.128,0.014-0.261,0.019-0.394,0.019
				c-0.479,0-0.945-0.076-1.377-0.209c-0.465-0.147-0.897-0.365-1.287-0.646c-0.551-0.394-1.011-0.907-1.343-1.5
				c-0.371-0.66-0.58-1.424-0.58-2.231c0-0.195,0.014-0.384,0.038-0.574c0.014-0.147,0.038-0.285,0.071-0.427
				c0.042-0.2,0.1-0.39,0.171-0.58s0.152-0.379,0.251-0.56c0.237-0.46,0.556-0.874,0.936-1.22c0.703-0.655,1.604-1.092,2.611-1.201
				c0.167-0.019,0.337-0.028,0.508-0.028c0.94,0,1.813,0.28,2.54,0.764h0.004c0.67,0.451,1.216,1.068,1.577,1.799
				C99.942,70.386,100.113,71.074,100.113,71.801"/>
			<path fill="#39B54A" d="M122.513,103.241c1.348,1.347,1.348,3.553,0.001,4.901l-0.296,0.296c-1.347,1.349-3.552,3.553-4.9,4.9
				l-0.296,0.296c-1.349,1.347-3.553,1.346-4.9-0.002l-1.772-1.774c-1.347-1.348-3.794-1.661-5.438-0.696
				c0,0-0.658,0.387-2.628,1.203c-1.937,0.807-2.707,1.009-2.707,1.009c-1.843,0.481-3.352,2.436-3.352,4.341v2.499
				c0,1.906-1.559,3.465-3.464,3.465H85c-1.905,0-3.465-1.559-3.465-3.465v-2.499c0-1.906-1.508-3.86-3.352-4.341
				c0,0-0.769-0.202-2.71-1.009c-1.966-0.816-2.625-1.203-2.625-1.203c-1.643-0.965-4.09-0.652-5.437,0.696l-1.772,1.774
				c-1.347,1.348-3.552,1.349-4.899,0.001l-0.299-0.299c-1.348-1.348-3.553-3.553-4.9-4.9l-0.289-0.29
				c-1.348-1.348-1.348-3.553-0.001-4.901l1.772-1.773c1.347-1.347,1.66-3.795,0.695-5.439c0,0-0.387-0.658-1.204-2.629
				C55.711,91.466,55.51,90.7,55.51,90.7c-0.485-1.843-2.44-3.35-4.346-3.35h-2.5c-1.906,0-3.465-1.398-3.465-3.105
				s1.438-2.501,3.195-1.764l8.846,2.897c1.872,0.359,3.797,2.161,4.28,4.005c0,0,0.016,0.061,0.685,1.661
				c1.458,3.532,3.604,6.705,6.262,9.368c2.659,2.653,5.831,4.799,9.358,6.262c3.404,1.415,7.136,2.194,11.053,2.194
				c0.456,0,0.907-0.01,1.358-0.034c1.134-0.053,2.255-0.171,3.352-0.347c2.208-0.365,4.33-0.978,6.338-1.814
				c3.527-1.462,6.699-3.603,9.358-6.267c2.659-2.654,4.622-6.306,4.622-6.306c0.902-1.679,2.783-2.978,4.18-2.886
				c1.397,0.092,3.46,1.273,2.855,2.742c-0.604,1.469-1.548,6.166-0.201,7.514L122.513,103.241z"/>
			<path fill="#39B54A" d="M129.094,72.651c1.906,0,3.465,1.559,3.465,3.465v7.77c0,1.905-1.256,3.465-2.792,3.465
				c-1.536,0-3.178-1.269-3.651-2.82l-0.508-1.23c-0.053-0.138-0.109-0.271-0.167-0.403c-1.068-2.559-2.393-4.691-3.87-6.466
				c-0.143-0.176-0.285-0.342-0.427-0.503l-1.809-2.094c-1.504-1.026-3.028-2.783-3.385-3.903l-0.408-0.978
				c-1.458-3.527-3.599-6.704-6.258-9.362c-2.654-2.659-6.306-4.622-6.306-4.622c-1.679-0.903-3.053-1.641-3.054-1.641
				s-1.493-0.458-3.314-1.019c0,0-3.819-1.175-7.731-1.175s-7.644,0.779-11.048,2.193c-2.412,0.997-3.715,2.134-3.715,2.134
				c-1.436,1.253-4.169,2.333-6.074,2.402l-7.023,0.705c-1.863,0.401-4.473-0.392-5.798-1.76l-0.009-0.01
				c-1.326-1.368-1.309-3.591,0.04-4.938l0.293-0.294c1.348-1.347,3.552-3.553,4.899-4.901l0.296-0.296
				c1.347-1.349,3.551-1.349,4.898,0l1.771,1.773c1.348,1.348,3.794,1.661,5.438,0.696c0,0,0.658-0.386,2.624-1.203
				c1.942-0.807,2.711-1.008,2.711-1.008c1.843-0.482,3.352-2.436,3.352-4.342v-2.5c0-1.906,1.559-3.465,3.465-3.465h7.76
				c1.906,0,3.465,1.559,3.465,3.465v2.5c0,1.906,1.508,3.859,3.353,4.342c0,0,0.769,0.201,2.706,1.008
				c1.97,0.817,2.633,1.205,2.633,1.205c1.644,0.964,4.09,0.649,5.437-0.7l1.769-1.771c1.346-1.348,3.551-1.349,4.898-0.002
				l0.294,0.294c1.348,1.347,3.552,3.552,4.9,4.899l0.299,0.299c1.347,1.347,1.347,3.552-0.001,4.899l-1.769,1.768
				c-1.348,1.347-1.663,3.794-0.699,5.439c0,0,0.385,0.656,1.201,2.627c0.807,1.937,1.01,2.707,1.01,2.707
				c0.483,1.844,2.439,3.352,4.345,3.352H129.094z"/>
		</g>
		<g>
			<path d="M167.626,77.67v4.676h-4.076c-0.554,0-0.946,0.083-1.177,0.246c-0.23,0.164-0.346,0.441-0.346,0.831
				c0,0.441,0.118,0.73,0.354,0.869c0.236,0.138,0.718,0.207,1.446,0.207h4.199v5.999h-4.907c-2.307,0-4.071-0.551-5.291-1.653
				c-1.221-1.103-1.831-2.694-1.831-4.776v-8.229c0-2.009,0.577-3.568,1.73-4.676c1.153-1.107,2.776-1.661,4.868-1.661h5.43v6.029
				h-3.984c-1.077,0-1.615,0.349-1.615,1.046c0,0.411,0.128,0.695,0.384,0.854s0.712,0.238,1.369,0.238H167.626z"/>
			<path d="M171.179,90.498V76.87c0-2.389,0.715-4.301,2.146-5.737c1.43-1.436,3.335-2.153,5.714-2.153
				c2.369,0,4.181,0.697,5.437,2.092s1.884,3.399,1.884,6.014v13.413h-6.245V77.085c0-1.282-0.456-1.923-1.369-1.923
				c-0.882,0-1.322,0.641-1.322,1.923v13.413H171.179z"/>
			<path d="M199.05,78.731h5.953c1.282,1.589,1.923,3.266,1.923,5.03c0,2.051-0.751,3.773-2.253,5.168
				c-1.502,1.395-3.351,2.092-5.545,2.092c-2.851,0-5.271-1.082-7.26-3.245s-2.984-4.8-2.984-7.906c0-3.117,1.013-5.712,3.038-7.783
				c2.025-2.071,4.555-3.107,7.591-3.107c1.036,0,2.184,0.21,3.445,0.63v6.245c-0.984-0.461-1.882-0.692-2.692-0.692
				c-1.467,0-2.664,0.457-3.591,1.369c-0.928,0.913-1.393,2.097-1.393,3.553c0,1.487,0.431,2.667,1.292,3.539
				c0.862,0.872,2.025,1.307,3.492,1.307c0.933,0,1.4-0.271,1.4-0.815c0-0.41-0.308-0.615-0.923-0.615h-1.492V78.731z"/>
			<path d="M220.661,77.67v4.676h-4.076c-0.554,0-0.946,0.083-1.177,0.246c-0.23,0.164-0.346,0.441-0.346,0.831
				c0,0.441,0.118,0.73,0.354,0.869c0.236,0.138,0.718,0.207,1.446,0.207h4.199v5.999h-4.906c-2.308,0-4.071-0.551-5.291-1.653
				c-1.221-1.103-1.831-2.694-1.831-4.776v-8.229c0-2.009,0.577-3.568,1.73-4.676c1.153-1.107,2.776-1.661,4.868-1.661h5.429v6.029
				h-3.983c-1.077,0-1.615,0.349-1.615,1.046c0,0.411,0.127,0.695,0.384,0.854c0.256,0.159,0.713,0.238,1.369,0.238H220.661z"/>
			<path d="M235.843,77.67v4.676h-4.076c-0.554,0-0.946,0.083-1.177,0.246c-0.231,0.164-0.346,0.441-0.346,0.831
				c0,0.441,0.117,0.73,0.354,0.869c0.235,0.138,0.717,0.207,1.445,0.207h4.2v5.999h-4.907c-2.307,0-4.071-0.551-5.292-1.653
				c-1.22-1.103-1.83-2.694-1.83-4.776v-8.229c0-2.009,0.577-3.568,1.73-4.676s2.776-1.661,4.868-1.661h5.43v6.029h-3.984
				c-1.077,0-1.615,0.349-1.615,1.046c0,0.411,0.128,0.695,0.385,0.854c0.256,0.159,0.712,0.238,1.369,0.238H235.843z"/>
			<path d="M246.071,69.502v20.996h-6.245V69.502H246.071z M258.053,69.502l-5.538,9.521l5.507,11.475h-7.014L246.255,78.9
				l5.384-9.398H258.053z"/>
			<path d="M274.266,69.502v20.996h-6.245V69.502H274.266z"/>
			<path d="M291.708,90.498h-5.752v-8.66c0-0.881-0.364-1.323-1.093-1.323c-0.717,0-1.076,0.441-1.076,1.323v8.66h-5.752v-8.552
				c0-1.999,0.661-3.684,1.984-5.053s2.943-2.053,4.86-2.053c2.194,0,3.953,0.795,5.276,2.384c1.036,1.241,1.554,2.969,1.554,5.184
				V90.498z"/>
			<path d="M304.475,83.438l5.707-0.215c-0.164,2.215-0.99,4.035-2.477,5.46c-1.487,1.426-3.297,2.138-5.43,2.138
				c-2.256,0-4.161-0.784-5.714-2.353c-1.554-1.569-2.33-3.492-2.33-5.768c0-2.164,0.784-4.015,2.353-5.553s3.451-2.307,5.645-2.307
				c1.918,0,3.61,0.605,5.076,1.815s2.378,2.753,2.738,4.63l-5.83,0.215c-0.502-0.656-1.138-0.984-1.907-0.984
				c-0.656,0-1.195,0.215-1.615,0.646s-0.631,0.975-0.631,1.63c0,0.667,0.223,1.225,0.67,1.676c0.446,0.452,1.002,0.677,1.668,0.677
				C303.372,85.145,304.064,84.577,304.475,83.438z"/>
			<path d="M316.949,83.607c1.005,0,1.869,0.364,2.592,1.092s1.084,1.594,1.084,2.6c0,1.005-0.359,1.859-1.077,2.561
				c-0.717,0.703-1.584,1.054-2.599,1.054c-1.057,0-1.925-0.341-2.607-1.023c-0.682-0.681-1.023-1.55-1.023-2.607
				c0-1.025,0.354-1.894,1.061-2.607C315.087,83.963,315.944,83.607,316.949,83.607z"/>
		</g>
	</g>
</g>
<g id="レイヤー_6">
</g>
<g id="レイヤー_7">
</g>
</svg>
