<?xml version="1.0" encoding="utf-8"?>
<!-- Generator: Adobe Illustrator 16.0.4, SVG Export Plug-In . SVG Version: 6.00 Build 0)  -->
<!DOCTYPE svg PUBLIC "-//W3C//DTD SVG 1.1//EN" "http://www.w3.org/Graphics/SVG/1.1/DTD/svg11.dtd">
<svg version="1.1" xmlns="http://www.w3.org/2000/svg" xmlns:xlink="http://www.w3.org/1999/xlink" x="0px" y="0px"
	 width="567.948px" height="52.638px" viewBox="0 0 567.948 52.638" enable-background="new 0 0 567.948 52.638"
	 xml:space="preserve">
<g id="レイヤー_4">
</g>
<g id="レイヤー_3">
</g>
<g id="レイヤー_2">
</g>
<g id="レイヤー_5">
</g>
<g id="レイヤー_1">
	<g>
		<path d="M42.465,38.68c0,2.188,0,5.323,0.118,6.979c-3.43,1.006-11.119,1.952-15.141,1.952c-3.844,0-10.705-0.354-15.673-2.839
			C4.317,41.046,0,34.362,0,26.97c0-8.34,4.14-14.312,9.345-17.861C14.727,5.441,20.7,4.317,26.733,4.317
			c5.086,0,11.296,0.77,13.248,1.479c0.236-0.946,0.887-4.258,1.064-5.5L42.406,0c-0.355,2.307-1.006,12.775-0.828,18.275
			l-1.36-0.71c-0.118-2.011-0.414-4.081-0.65-5.441c-1.538-1.833-5.737-5.736-15.377-5.736c-10.291,0-17.151,7.629-17.151,17.092
			c0,9.641,8.221,22.002,20.996,22.002c1.538,0,5.027-0.236,7.511-1.538c0.118-0.887,0.177-2.897,0.177-5.855v-3.134
			c0-1.834-0.059-3.667-0.236-4.731c-1.183-0.118-4.85-0.414-5.974-0.651l-0.354-1.241c3.075,0.118,7.629,0.177,9.699,0.177
			c2.839,0,8.576-0.059,9.286-0.177l-0.296,1.241c-0.532,0.06-3.844,0.355-5.146,0.651c-0.177,1.005-0.236,4.908-0.236,6.564V38.68z
			"/>
		<path d="M59.847,23.657c0-5.322-0.177-14.727-0.414-16.56c-1.124-0.237-4.731-0.651-6.151-0.828l-0.236-1.242
			c1.419,0.06,3.371,0.118,5.323,0.178c1.952,0,3.904,0.059,5.205,0.059c1.893,0,15.791,0,17.388-0.414
			c0.178-0.709,0.355-1.715,0.474-2.779l1.36-0.236c-0.296,1.241-1.064,10.409-1.183,12.242l-1.302-0.414
			c0-0.414,0.06-3.075,0-4.258C79.246,7.688,70.138,6.92,67.003,6.92c-0.178,0.828-0.414,12.242-0.414,15.732v1.183
			c5.086,0,10.823-0.414,12.242-0.946c0.296-0.888,0.474-1.715,0.592-2.543l1.242-0.118c-0.178,1.064-1.242,9.167-1.538,11.06
			l-1.124-0.474c0.06-1.242,0.119-2.779,0.119-3.962c-1.834-0.946-6.447-1.302-11.533-1.302v1.183
			c0,3.608,0.236,16.501,0.414,18.217c5.914,0,11.474-0.474,14.194-2.011c0.65-2.07,0.946-3.904,1.301-5.205l1.36-0.354
			c-0.414,1.715-1.715,10.704-1.951,13.662l-1.242-0.237c0-1.597,0-2.661-0.06-3.607c-1.715-0.296-14.845-0.532-18.571-0.532
			c-2.011,0-6.683,0.118-8.99,0.236l0.296-1.242c0.946-0.059,4.495-0.413,6.092-0.827c0.236-1.065,0.414-11.947,0.414-18.453V23.657
			z"/>
		<path d="M90.242,5.264c3.312-0.118,8.872-0.177,13.485-0.414c1.301,2.011,13.188,16.915,14.194,17.979
			c1.537,1.656,10.941,13.071,12.834,14.668c0-6.565-0.06-27.324-1.242-30.399c-1.183-0.237-4.317-0.71-5.974-0.828l-0.296-1.242
			c1.124,0.118,7.512,0.236,8.812,0.236c1.302,0,6.21-0.118,7.452-0.236l-0.236,1.242c-0.769,0.118-2.898,0.591-4.495,0.828
			c-0.71,2.307-1.006,10.646-1.124,12.538c-0.177,2.779-0.65,27.62-1.005,29.985c-1.774-1.656-18.157-20.759-19.518-22.297
			c-0.828-0.887-12.065-14.608-14.017-16.855c-0.178,1.183,0.532,32.232,1.301,34.362c0.888,0.295,5.323,0.709,6.447,0.827
			l0.177,1.242c-1.064-0.118-7.215-0.236-8.753-0.236c-1.715,0-6.328,0.118-8.044,0.236l0.178-1.242
			c1.656-0.236,3.549-0.413,4.909-0.827c1.005-2.484,1.656-35.664,1.656-37.615c-1.36-0.296-4.259-0.592-6.506-0.71L90.242,5.264z"
			/>
		<path d="M151.212,23.657c0-5.322-0.178-14.727-0.414-16.56c-1.124-0.237-4.731-0.651-6.151-0.828l-0.236-1.242
			c1.419,0.06,3.371,0.118,5.323,0.178c1.951,0,3.903,0.059,5.204,0.059c1.893,0,15.791,0,17.388-0.414
			c0.178-0.709,0.355-1.715,0.474-2.779l1.36-0.236c-0.296,1.241-1.064,10.409-1.183,12.242l-1.302-0.414
			c0-0.414,0.06-3.075,0-4.258c-1.064-1.716-10.172-2.484-13.307-2.484c-0.178,0.828-0.414,12.242-0.414,15.732v1.183
			c5.086,0,10.823-0.414,12.242-0.946c0.296-0.888,0.474-1.715,0.592-2.543l1.242-0.118c-0.178,1.064-1.242,9.167-1.538,11.06
			l-1.124-0.474c0.06-1.242,0.119-2.779,0.119-3.962c-1.834-0.946-6.447-1.302-11.533-1.302v1.183
			c0,3.608,0.236,16.501,0.414,18.217c5.914,0,11.474-0.474,14.194-2.011c0.65-2.07,0.946-3.904,1.301-5.205l1.36-0.354
			c-0.414,1.715-1.715,10.704-1.951,13.662l-1.242-0.237c0-1.597,0-2.661-0.06-3.607c-1.715-0.296-14.845-0.532-18.571-0.532
			c-2.011,0-6.683,0.118-8.989,0.236l0.296-1.242c0.946-0.059,4.495-0.413,6.092-0.827c0.236-1.065,0.414-11.947,0.414-18.453
			V23.657z"/>
		<path d="M182.967,52.638c0.119-0.828,0.946-7.393,0.946-9.699c0-1.538,0.355-7.926,0.178-9.345l1.36,0.354
			c-0.06,0.769,0.236,4.14,0.414,5.205c1.597,3.785,5.086,6.446,9.167,6.446c4.673,0,8.398-3.075,8.398-7.452
			c0-4.791-3.726-7.156-7.57-9.641c-5.796-3.785-10.409-7.097-10.409-13.78c0-4.613,3.431-10.409,12.184-10.409
			c3.489,0,6.564,0.71,7.984,1.064c0.414-1.419,0.71-3.193,1.064-4.79l1.36-0.178c-0.828,5.855-1.42,11.355-1.42,16.205
			l-1.359-0.591c0-2.012-0.119-3.431-0.237-4.495c-0.65-2.129-3.726-5.323-7.866-5.323c-5.086,0-7.215,3.253-7.215,5.914
			c0,3.845,4.021,5.915,8.517,8.754c4.909,3.075,9.877,6.387,9.877,13.839c0,8.222-6.506,12.894-14.55,12.894
			c-2.839,0-6.506-0.592-8.161-1.479c-0.296,1.124-0.888,3.963-1.302,6.15L182.967,52.638z"/>
		<path d="M228.267,26.082c0,7.688,0.059,17.565,0.296,18.749c1.479,0.354,5.026,0.709,6.21,0.827l0.295,1.242
			c-1.301-0.118-7.451-0.236-11.118-0.236c-2.011,0-7.452,0.118-9.227,0.236l0.236-1.242c1.006-0.059,5.027-0.591,6.27-0.827
			c0.236-2.484,0.296-13.426,0.296-19.222V22.12c0-1.952-0.06-13.012-0.296-15.022c-1.183-0.237-5.087-0.71-6.21-0.828l-0.296-1.242
			c1.124,0.118,6.564,0.236,11.237,0.236c3.017,0,8.103-0.118,9.107-0.236l-0.295,1.242c-1.184,0.118-4.081,0.591-6.21,0.828
			c-0.237,1.183-0.296,8.043-0.296,15.317V26.082z"/>
		<path d="M241.629,52.638c0.119-0.828,0.946-7.393,0.946-9.699c0-1.538,0.355-7.926,0.178-9.345l1.36,0.354
			c-0.06,0.769,0.236,4.14,0.414,5.205c1.597,3.785,5.086,6.446,9.167,6.446c4.673,0,8.398-3.075,8.398-7.452
			c0-4.791-3.726-7.156-7.57-9.641c-5.796-3.785-10.409-7.097-10.409-13.78c0-4.613,3.431-10.409,12.184-10.409
			c3.489,0,6.564,0.71,7.984,1.064c0.414-1.419,0.71-3.193,1.064-4.79l1.36-0.178c-0.828,5.855-1.42,11.355-1.42,16.205
			l-1.359-0.591c0-2.012-0.119-3.431-0.237-4.495c-0.65-2.129-3.726-5.323-7.866-5.323c-5.086,0-7.215,3.253-7.215,5.914
			c0,3.845,4.021,5.915,8.517,8.754c4.909,3.075,9.877,6.387,9.877,13.839c0,8.222-6.506,12.894-14.55,12.894
			c-2.839,0-6.506-0.592-8.161-1.479c-0.296,1.124-0.888,3.963-1.302,6.15L241.629,52.638z"/>
		<path d="M294.912,21.706c0-2.13-0.059-13.485-0.296-14.608c-1.005-0.237-5.026-0.592-6.328-0.71l-0.178-1.242l12.775-0.059
			c5.618,0,12.656,0.059,16.679,1.655c3.134,1.242,5.086,3.489,5.086,6.742c0,3.727-3.785,8.636-8.339,11.179
			c0.65,1.479,10.172,16.974,16.323,23.479l-2.603,0.414c-4.14-1.893-19.872-20.05-20.818-21.292
			c-2.247,0.178-4.672,0.355-5.678,0.355v1.537c0,3.845,0.118,12.953,0.296,15.674c1.006,0.295,4.909,0.709,6.21,0.827l0.236,1.242
			c-1.479-0.118-7.452-0.236-10.173-0.236c-2.425,0-8.635,0.118-9.995,0.236l0.237-1.242c0.828-0.059,4.613-0.413,6.269-0.827
			c0.237-1.716,0.296-13.308,0.296-19.518V21.706z M301.536,25.786c2.129,0,4.673-0.177,7.216-1.123s6.742-3.667,6.742-9.522
			c0-3.785-3.431-8.398-13.662-8.398c-0.178,2.425-0.296,13.012-0.296,17.211V25.786z"/>
		<path d="M339.205,23.657c0-5.322-0.178-14.727-0.414-16.56c-1.124-0.237-4.731-0.651-6.151-0.828l-0.236-1.242
			c1.419,0.06,3.371,0.118,5.323,0.178c1.951,0,3.903,0.059,5.204,0.059c1.893,0,15.791,0,17.388-0.414
			c0.178-0.709,0.355-1.715,0.474-2.779l1.36-0.236c-0.296,1.241-1.064,10.409-1.183,12.242l-1.302-0.414
			c0-0.414,0.06-3.075,0-4.258c-1.064-1.716-10.172-2.484-13.307-2.484c-0.178,0.828-0.414,12.242-0.414,15.732v1.183
			c5.086,0,10.823-0.414,12.242-0.946c0.296-0.888,0.474-1.715,0.592-2.543l1.242-0.118c-0.178,1.064-1.242,9.167-1.538,11.06
			l-1.124-0.474c0.06-1.242,0.119-2.779,0.119-3.962c-1.834-0.946-6.447-1.302-11.533-1.302v1.183
			c0,3.608,0.236,16.501,0.414,18.217c5.914,0,11.474-0.474,14.194-2.011c0.65-2.07,0.946-3.904,1.301-5.205l1.36-0.354
			c-0.414,1.715-1.715,10.704-1.951,13.662l-1.242-0.237c0-1.597,0-2.661-0.06-3.607c-1.715-0.296-14.845-0.532-18.571-0.532
			c-2.011,0-6.683,0.118-8.989,0.236l0.296-1.242c0.946-0.059,4.495-0.413,6.092-0.827c0.236-1.065,0.414-11.947,0.414-18.453
			V23.657z"/>
		<path d="M409.757,18.157c0-1.124-0.177-3.903-0.354-4.909c-1.124-2.603-6.624-6.86-14.253-6.86
			c-10.765,0-17.566,7.807-17.566,17.033c0,11.533,9.522,21.291,22.002,21.291c4.494,0,9.817-0.709,14.017-3.193l-0.828,2.543
			c-1.36,1.124-7.334,3.549-16.619,3.549c-2.188,0-8.635-0.236-13.426-2.603c-7.688-3.785-12.242-10.527-12.242-18.098
			c0-8.161,4.14-14.194,9.345-17.684c6.15-4.14,11.651-4.909,17.624-4.909c5.205,0,10.705,1.064,12.361,1.538
			c0.354-0.769,1.064-4.554,1.242-5.264l1.36-0.296c-0.888,6.506-1.242,12.656-1.302,18.275L409.757,18.157z"/>
		<path d="M424.005,40.986c-4.317-4.436-5.678-8.753-5.678-14.312c0-11.71,9.641-22.356,25.964-22.356
			c6.269,0,11.237,1.006,16.383,4.791c4.672,3.43,7.156,9.167,7.156,14.667c0,14.49-11.001,23.835-25.55,23.835
			C436.307,47.61,429.505,46.604,424.005,40.986z M460.615,28.093c0-12.538-8.694-21.527-18.512-21.527
			c-8.103,0-16.974,5.44-16.974,17.624c0,10.587,8.517,20.996,20.049,20.996C453.636,45.186,460.615,37.556,460.615,28.093z"/>
		<path d="M480.658,21.706c0-2.13-0.059-13.485-0.296-14.608c-1.005-0.237-5.026-0.592-6.328-0.71l-0.178-1.242l12.775-0.059
			c5.618,0,12.656,0.059,16.679,1.655c3.134,1.242,5.086,3.489,5.086,6.742c0,3.727-3.785,8.636-8.339,11.179
			c0.65,1.479,10.172,16.974,16.323,23.479l-2.603,0.414c-4.14-1.893-19.872-20.05-20.818-21.292
			c-2.247,0.178-4.672,0.355-5.678,0.355v1.537c0,3.845,0.118,12.953,0.296,15.674c1.006,0.295,4.909,0.709,6.21,0.827l0.236,1.242
			c-1.479-0.118-7.452-0.236-10.173-0.236c-2.425,0-8.635,0.118-9.995,0.236l0.237-1.242c0.828-0.059,4.613-0.413,6.269-0.827
			c0.237-1.716,0.296-13.308,0.296-19.518V21.706z M487.282,25.786c2.129,0,4.673-0.177,7.216-1.123s6.742-3.667,6.742-9.522
			c0-3.785-3.431-8.398-13.662-8.398c-0.178,2.425-0.296,13.012-0.296,17.211V25.786z"/>
		<path d="M524.951,21.765c0-2.661-0.118-13.484-0.414-14.667c-1.538-0.296-4.85-0.71-6.27-0.828l-0.118-1.242
			c0.887,0.118,7.274,0.236,9.759,0.236c2.07,0,9.107-0.236,13.662-0.236c6.92,0,12.774,0.828,16.678,2.721
			c6.92,3.312,9.7,8.931,9.7,14.312c0,12.479-9.818,24.722-32.529,24.722c-3.312,0-15.851,0.06-17.27,0.118l0.236-1.242
			c1.124-0.059,4.731-0.413,6.151-0.827c0.296-1.006,0.414-11.533,0.414-18.394V21.765z M531.693,26.97
			c0,3.193,0.178,14.312,0.414,16.441c2.602,1.006,4.908,1.064,6.446,1.064c11.296,0,22.119-6.624,22.119-19.222
			c0-5.026-1.537-9.995-6.446-13.662c-4.317-3.193-11.414-4.376-16.915-4.376c-1.36,0-3.962,0.118-5.204,0.354
			c-0.178,0.888-0.414,14.49-0.414,17.093V26.97z"/>
	</g>
</g>
<g id="レイヤー_6">
</g>
<g id="レイヤー_7">
</g>
</svg>
