<?xml version="1.0" encoding="utf-8"?>
<!-- Generator: Adobe Illustrator 16.0.4, SVG Export Plug-In . SVG Version: 6.00 Build 0)  -->
<!DOCTYPE svg PUBLIC "-//W3C//DTD SVG 1.1//EN" "http://www.w3.org/Graphics/SVG/1.1/DTD/svg11.dtd">
<svg version="1.1" xmlns="http://www.w3.org/2000/svg" xmlns:xlink="http://www.w3.org/1999/xlink" x="0px" y="0px"
	 width="413.292px" height="52.375px" viewBox="0 0 413.292 52.375" enable-background="new 0 0 413.292 52.375"
	 xml:space="preserve">
<g id="レイヤー_4">
</g>
<g id="レイヤー_3">
</g>
<g id="レイヤー_2">
</g>
<g id="レイヤー_5">
</g>
<g id="レイヤー_1">
</g>
<g id="レイヤー_6">
</g>
<g id="レイヤー_8">
</g>
<g id="レイヤー_9">
	<g>
		<path fill="#2A2421" d="M374.977,26.195c2.182-0.208,5.436-0.54,7.655-0.955c3.362-0.639,14.05-7.229,17.113-9.142l10.522,10.096
			H374.977L374.977,26.195z M388.084,41.352c0-0.084,0-0.175-0.005-0.238c0.316,0.802,0.477,1.677,0.477,2.567
			c0,0.335-0.024,0.644-0.062,0.971c-0.419,3.044-3.413,4.767-5.408,5.02c-1.752,0.199-2.86-0.132-3.281-0.495
			c-0.262-0.231-0.443-0.649-0.443-1.14c0,0,0-0.004,0-0.011c0.012-0.174,0.059-0.395,0.217-0.552
			c0.349-0.354,1.096-0.437,1.75-0.527l0.413-0.053c1.795-0.279,3.667-0.664,5.059-2.204
			C387.656,43.745,388.084,42.622,388.084,41.352L388.084,41.352z M369.566,20.917c-0.483,0-0.88-0.395-0.88-0.875
			s0.397-0.871,0.88-0.871c0.478,0,0.865,0.391,0.865,0.871S370.044,20.917,369.566,20.917L369.566,20.917z M369.566,27.054
			c-0.483,0-0.88-0.386-0.88-0.854c0-0.492,0.397-0.876,0.88-0.876c0.478,0,0.865,0.385,0.865,0.876
			C370.431,26.668,370.044,27.054,369.566,27.054L369.566,27.054z M369.566,33.211c-0.483,0-0.88-0.39-0.88-0.875
			c0-0.479,0.397-0.864,0.88-0.864c0.478,0,0.865,0.385,0.865,0.864C370.431,32.821,370.044,33.211,369.566,33.211L369.566,33.211z
			 M351.588,25.698l2.309-3.896c2.363,1.038,6.918,3.037,9.317,3.896H351.588L351.588,25.698z M381.741,5.501l-0.413-0.065
			c-0.654-0.09-1.402-0.183-1.75-0.525c-0.159-0.16-0.205-0.391-0.217-0.55c0-0.016,0-0.021,0-0.025
			c0-0.481,0.181-0.902,0.443-1.139c0.421-0.345,1.529-0.697,3.281-0.476c1.995,0.233,4.988,1.956,5.408,4.999
			c0.038,0.327,0.062,0.644,0.062,0.97c0,0.901-0.161,1.771-0.477,2.574c0.005-0.069,0.005-0.153,0.005-0.238
			c0-1.27-0.428-2.397-1.284-3.331C385.409,6.144,383.536,5.754,381.741,5.501L381.741,5.501z M400.009,13.45l-0.692,0.428
			c-3.789,2.41-14.26,8.762-17.072,9.305c-3.424,0.638-9.631,1.098-9.631,1.103c-0.238-0.005-0.549-0.017-0.896-0.027V21.34
			c3.69-0.098,7.539-0.608,10.972-2.01c5.048-2.045,8.794-6.327,7.997-12.042c-0.592-4.282-3.839-6.638-8.304-7.186
			c-3.583-0.449-7.468,0.474-7.563,4.813c-0.104,4.159,4.035,3.79,6.942,4.418c1.633,0.352,2.436,1.218,2.641,2.246
			c0.451,2.278-2.641,4.482-6.07,5.752c-1.056,0.385-3.747,1.096-6.614,1.512v-1.612c0-0.961-0.791-1.746-1.749-1.746h-0.813
			c-0.965,0-1.75,0.784-1.75,1.746v1.939c-3.371-0.048-5.86-1.032-4.567-4.192c1.433-3.495-2.302-2.572-2.302-2.572
			c-3.129,0.601-2.686,4.555-0.682,6.32c2.019,1.788,4.798,2.378,7.551,2.569v2.678c-1.015-0.101-1.935-0.233-2.542-0.396
			c-1.725-0.473-8.036-3.243-11.131-4.64l-0.858-0.38l-3.69,6.28v-0.269H216.932v3.23h132.253v-0.263l3.69,6.279l0.858-0.385
			c3.095-1.391,9.406-4.164,11.131-4.634c0.618-0.167,1.552-0.295,2.542-0.394v2.677c-2.753,0.19-5.532,0.791-7.551,2.566
			c-2.004,1.768-2.448,5.729,0.682,6.317c0,0,3.735,0.928,2.302-2.568c-1.292-3.162,1.196-4.137,4.567-4.191v1.946
			c0,0.948,0.785,1.734,1.75,1.734h0.813c0.958,0,1.749-0.786,1.749-1.734v-1.625c2.867,0.422,5.558,1.127,6.614,1.518
			c3.43,1.265,6.521,3.475,6.07,5.746c-0.205,1.034-1.008,1.895-2.641,2.246c-2.907,0.627-7.045,0.258-6.942,4.424
			c0.095,4.344,3.98,5.262,7.563,4.81c4.465-0.544,7.712-2.906,8.304-7.181c0.797-5.714-2.948-9.997-7.997-12.046
			c-3.433-1.398-7.282-1.911-10.972-2.005v-2.921c0.475-0.014,0.789-0.025,0.789-0.025c0.064,0.005,6.309,0.453,9.738,1.096
			c2.812,0.548,13.283,6.899,17.072,9.306l0.692,0.443l13.283-12.743L400.009,13.45L400.009,13.45z"/>
		<path fill="#2A2421" d="M50.082,25.698c2.397-0.859,6.954-2.858,9.3-3.896l2.325,3.896H50.082L50.082,25.698z M43.73,20.917
			c-0.476,0-0.868-0.395-0.868-0.875s0.392-0.871,0.868-0.871c0.487,0,0.875,0.391,0.875,0.871S44.217,20.917,43.73,20.917
			L43.73,20.917z M42.862,26.2c0-0.492,0.392-0.876,0.868-0.876c0.487,0,0.875,0.385,0.875,0.876c0,0.468-0.388,0.854-0.875,0.854
			C43.254,27.054,42.862,26.668,42.862,26.2L42.862,26.2z M43.73,33.211c-0.476,0-0.868-0.39-0.868-0.875
			c0-0.479,0.392-0.864,0.868-0.864c0.487,0,0.875,0.385,0.875,0.864C44.605,32.821,44.217,33.211,43.73,33.211L43.73,33.211z
			 M31.548,46.893l0.415,0.053c0.659,0.091,1.403,0.174,1.752,0.527c0.159,0.157,0.207,0.378,0.217,0.552c0,0.007,0,0.011,0,0.011
			c0,0.491-0.181,0.909-0.445,1.14c-0.419,0.362-1.527,0.694-3.278,0.495c-1.988-0.253-4.988-1.976-5.409-5.02
			c-0.038-0.327-0.062-0.636-0.062-0.971c0-0.891,0.166-1.766,0.475-2.567c0,0.063-0.005,0.154-0.005,0.238
			c0,1.27,0.434,2.393,1.281,3.337C27.882,46.229,29.756,46.614,31.548,46.893L31.548,46.893z M3.024,26.195l10.527-10.096
			c3.062,1.913,13.748,8.503,17.108,9.142c2.23,0.415,5.477,0.747,7.658,0.955H3.024L3.024,26.195z M25.207,11.025
			c0,0.085,0.005,0.169,0.005,0.238c-0.309-0.803-0.475-1.673-0.475-2.574c0-0.326,0.024-0.643,0.062-0.97
			c0.421-3.043,3.421-4.766,5.409-4.999c1.75-0.221,2.858,0.131,3.278,0.476c0.264,0.237,0.445,0.658,0.445,1.139
			c0,0.004,0,0.009,0,0.025c-0.01,0.159-0.059,0.39-0.217,0.55c-0.349,0.342-1.093,0.436-1.752,0.525l-0.415,0.065
			c-1.792,0.252-3.666,0.643-5.061,2.193C25.64,8.628,25.207,9.756,25.207,11.025L25.207,11.025z M64.109,24.571v0.269l-3.688-6.28
			l-0.861,0.38c-3.095,1.396-9.405,4.167-11.125,4.64c-0.611,0.163-1.533,0.295-2.546,0.396v-2.678
			c2.756-0.191,5.53-0.781,7.556-2.569c1.996-1.765,2.442-5.719-0.678-6.32c0,0-3.745-0.923-2.313,2.572
			c1.296,3.16-1.198,4.144-4.565,4.192v-1.939c0-0.961-0.789-1.746-1.745-1.746h-0.816c-0.961,0-1.752,0.784-1.752,1.746v1.612
			c-2.862-0.416-5.559-1.127-6.614-1.512c-3.433-1.27-6.518-3.474-6.07-5.752c0.205-1.028,1.011-1.894,2.641-2.246
			c2.905-0.628,7.047-0.259,6.944-4.418c-0.093-4.339-3.982-5.262-7.563-4.813c-4.457,0.548-7.713,2.904-8.304,7.186
			c-0.796,5.715,2.946,9.996,7.993,12.042c3.438,1.401,7.284,1.912,10.974,2.01v2.919c-0.343,0.01-0.656,0.021-0.892,0.027
			c0-0.005-6.212-0.465-9.631-1.103c-2.815-0.542-13.28-6.895-17.075-9.305l-0.692-0.428L0,26.195l13.284,12.743l0.692-0.443
			c3.795-2.406,14.26-8.758,17.075-9.306c3.432-0.643,9.671-1.091,9.731-1.096c0,0,0.316,0.011,0.792,0.025v2.921
			c-3.69,0.094-7.536,0.607-10.974,2.005c-5.047,2.049-8.789,6.333-7.993,12.046c0.59,4.275,3.847,6.637,8.304,7.181
			c3.582,0.452,7.47-0.465,7.563-4.81c0.104-4.166-4.039-3.796-6.944-4.424c-1.629-0.351-2.436-1.212-2.641-2.246
			c-0.447-2.271,2.637-4.481,6.07-5.746c1.055-0.391,3.752-1.096,6.614-1.518v1.625c0,0.948,0.791,1.734,1.752,1.734h0.816
			c0.956,0,1.745-0.786,1.745-1.734v-1.946c3.367,0.054,5.861,1.029,4.565,4.191c-1.432,3.496,2.313,2.568,2.313,2.568
			c3.121-0.589,2.674-4.55,0.678-6.317c-2.026-1.776-4.8-2.376-7.556-2.566v-2.677c0.992,0.099,1.921,0.226,2.546,0.394
			c1.721,0.47,8.031,3.243,11.125,4.634l0.861,0.385l3.688-6.279v0.263H219.06v-3.23H64.109L64.109,24.571z"/>
	</g>
</g>
<g id="レイヤー_7" display="none">
</g>
</svg>
