<?xml version="1.0" encoding="utf-8"?>
<!-- Generator: Adobe Illustrator 16.0.4, SVG Export Plug-In . SVG Version: 6.00 Build 0)  -->
<!DOCTYPE svg PUBLIC "-//W3C//DTD SVG 1.1//EN" "http://www.w3.org/Graphics/SVG/1.1/DTD/svg11.dtd">
<svg version="1.1" xmlns="http://www.w3.org/2000/svg" xmlns:xlink="http://www.w3.org/1999/xlink" x="0px" y="0px"
	 width="653.219px" height="325.687px" viewBox="0 0 653.219 325.687" enable-background="new 0 0 653.219 325.687"
	 xml:space="preserve">
<g id="レイヤー_4">
</g>
<g id="レイヤー_3">
</g>
<g id="レイヤー_2">
</g>
<g id="レイヤー_5">
	<line fill="none" stroke="#1B1464" stroke-width="2" stroke-miterlimit="10" x1="9.289" y1="150.812" x2="609.219" y2="150.812"/>
	<line fill="none" stroke="#1B1464" stroke-width="2" stroke-miterlimit="10" x1="115.98" y1="324.812" x2="653.219" y2="324.812"/>
	<g>
		<g>
			<g>
				<path d="M48.469,27.088c0,4.464,0.583,5.894,0.583,9.494c-0.058,3.008-0.83,5.775-0.879,8.206
					c-0.072,3.622-0.233,6.479-0.233,8.202c-0.061,3.432,0.448,5.517,0.417,7.213c-0.042,2.289-0.312,3.785-0.395,7.093
					c1.829-1.862,3.05-3.868,4.564-5.637c1.675-1.954,4.011-3.234,5.37-5.179c1.432-2.046,1.913-4.623,3.078-6.782
					c1.145-2.119,2.487-4.127,3.456-6.475c-2.184-1.259-2.508,0.104-5.028,0.104c-3.744,0-5.93-0.057-8.811,0.519
					c-1.584-1.901-1.839-2.305-0.555-4.42c3.168,0.864,4.902,1.298,9.365,1.298c4.104,0,4.357,0.873,8.187-0.604
					c1.478-0.57-0.17-1.528-0.17-3.112c0-2.016-0.136-3.927-0.567-7.239c3.455,0.288,6.517,0.794,8.388,0.938
					c7.344,0.576,10.286,1.117,10.286,2.413c0,1.152-2.301,1.709-6.044,2.573c-1.265,1.751-1.764,3.62,0.132,4.654
					c3.477,1.896,4.2,0.915,8.057,0.02c2.017-2.304,4.114-5.164,6.417-7.755c1.926,1.569,2.958,2.963,4.171,4.015
					c1.237,1.072,2.76,1.237,4.576,2.909c5.136,0.705,5.547,2.837,10.465,1.198c1.64-0.546-0.521-2.285-0.521-4.013
					c0-3.6,0.423-4.068-0.009-6.804c3.43,0.283,5.979,0.306,8.019,0.475c6.265,0.521,7.027,0.443,8.114,0.877
					c1.008,0.288,2.041,1.132,2.041,1.708c0,1.008-2.011,1.378-5.754,2.674c-1.198,1.797-1.807,3.969,0.17,4.841
					c4.479,1.976,5.035,0.087,9.867-0.698c1.633-1.855,2.357-3.028,3.473-4.292c1.05-1.189,2.539-1.828,4.214-3.712
					c2.578,2.021,4.046,3.405,5.638,4.729c1.697,1.413,3.391,2.642,5.769,4.796c0.576,0.576,0.993,0.876,0.993,1.165
					c0,0.432-0.728,0.599-1.592,0.599c-3.398,0-3.398,0.599-6.797,0.599c-3.401,0-3.401-1.12-6.803-1.12
					c-3.404,0-3.404,1.242-6.808,1.242s-3.611-1.773-6.837-0.687c1.692,1.723,3.4,3.432,5.24,4.792
					c1.881,1.39,3.939,2.482,6.062,3.532c2.028,1.002,4.251,1.637,6.581,2.363c2.119,0.66,4.319,1.371,6.749,1.83
					c2.173,0.41,4.55,0.689,7.017,0.958c0.499,0.288,0.447,1.029,0.02,1.416c-2.297,0.918-4.616,1.683-5.946,3.469
					c-1.172,1.573-1.955,3.822-2.631,6.385c-0.287,1.008-0.312,1.16-0.887,1.16c-0.855,0-2.6-1.289-4.937-2.858
					c-1.602-1.075-3.382-2.14-4.845-3.427c-2.055-1.804-4.357-2.987-5.953-4.84c-1.613-1.874-3.325-3.767-4.744-6.078
					c-1.208-1.97-1.641-4.399-2.894-6.947c-0.899,2.662-0.634,2.745-0.525,5.552c0.107,2.808,0.144,2.801,0.215,5.61
					c0,2.88,0.123,4.595,0.123,5.747c0,1.152,0.594,1.152,0.594,2.304c0,1.584-0.481,1.562-0.481,3.002
					c-0.289,2.016-2.041,2.025-8.377,2.025c-3.312,0-3.939,0.453-4.228-1.275c0.144-4.176,0.708-5.622,0.853-9.941
					c0.083-2.952,1.88-3.501,0.607-6.167c-2.078,1.853-4.398,3.779-6.191,5.175c-2.041,1.588-4.257,2.57-6.396,3.876
					c-1.975,1.206-4.234,2.711-6.7,3.944c2.822,0.513,5.436,0.318,7.151,0.641c5.989,1.126,5.742,1.856,5.742,2.751
					c0,1.008-0.512,1.752-4.977,2.328c-1.152,0.864-2.259,0.967-2.835,1.398c-2.736,2.16-3.297,3.178-5.169,4.33
					c3.816,0.745,3.999-1.195,7.887-1.195c3.887,0,3.887,1.184,7.772,1.184c3.889,0,3.889-0.089,7.777-0.089
					c3.89,0,3.991,0.457,7.695-0.729c3.023-3.456,3.859-4.817,7.027-8.273c1.936,1.335,3.791,3.557,5.526,4.707
					c2.009,1.33,3.778,2.64,5.478,3.721c1.008,0.864,1.52,0.969,1.52,1.545c0,1.152-0.294,1.839-3.894,3.855
					c0,3.385-0.272,5.214-0.236,7.571c0.029,1.934,0.045,4.153,0.143,7.681c0.056,2.05-0.36,4.531-0.271,7.669
					c-0.145,1.152,0.478,2.153-0.242,2.585c-1.296,0.576-5.32,0.257-9.929,0.257c-2.735,0-3.977-0.021-4.265-1.172
					c-0.075-0.644,1.332-1.407,0.696-1.532c-3.225-0.636-3.317,0.333-6.604,0.333c-3.289,0-3.289,0.31-6.578,0.31
					s-4.341-2.902-6.45-0.378c-2.523,3.018-0.156,3.828-0.156,7.762c0,3.937,0.706,3.937,0.706,7.874
					c0,3.937-1.043,3.937-1.043,7.874c0,2.736,0.533,3.017,6.006,3.161c-0.193-0.576-0.295-2.765-1.085-5.778
					c-0.395-1.502-1.416-3.261-1.943-5.37c1.584,0.144,2.717,0.785,3.581,0.785c0.287,0,0.859-0.576,1.436-0.576
					c0.711-2.276,1.162-4.513,1.628-6.718c0.478-2.259,0.872-4.65,1.018-6.982c2.832,0.629,5.173,1.147,6.902,1.542
					c6.184,1.412,6.611,1.724,6.611,2.512c0,0.72-1.38,1.407-4.691,1.982c-0.864,0.864-1.379,1.633-1.812,2.065
					c-3.743,3.6-4.747,3.844-6.907,5.572c2.592-0.144,5.011-0.851,6.308-0.851c5.184-0.288,6.408,0.365,9.432,0.077
					c-1.152-2.304-2.688-3.366-4.703-5.526c-0.216-0.679,0.757-0.623,1.469-0.606c3.065,1.105,5.449,1.625,7.273,2.623
					c3.402,1.86,4.285,3.596,4.285,5.752c0,3.168-1.609,6.388-3.77,6.388c-1.151,0-1.377-1.152-2.097-3.312
					c-0.72-1.728-1.484-2.199-1.771-3.351c-2.591,1.025-4.276,2.068-5.899,2.643c-1.693,0.6-3.43,0.863-6.059,1.68
					c-1.578,0.49-3.732,0.952-6.23,1.728c-0.433,1.44-0.448,3.044-0.881,4.052c3.744,0,5.658-1.025,7.53-1.025
					c2.713,0,5.052,0.144,7.08,0.112c2.979-0.047,5.258-0.185,7.059-0.332c4.069-0.331,5.75-0.537,6.74-1.693
					c0.766-0.918,1.286-3.481,2.772-7.578c0.749-2.065,2.584-4.254,3.575-7.285c0.741-2.266,0.484-5.424,1.379-8.281
					c0.472-0.549,1.334-0.1,1.421,0.619c0.527,4.4,0.65,4.381,0.47,8.809c-0.18,4.428-0.513,4.414-0.742,8.84
					c-0.023,0.438-0.082,0.429-0.098,0.866c0,3.024,0.464,4.144,2.624,4.864c3.168,0.864,4.432,1.905,4.432,4.641
					c0,2.448-1.541,4.226-4.422,5.521c-1.355,0.648-3.47,0.715-6.627,1.055c-1.899,0.205-4.105,0.669-6.776,0.779
					c-2.04,0.084-4.3,0.83-6.836,0.865c-2.105,0.03-4.394-0.122-6.866-0.122c-0.289,0-1.436-0.551-2.443-0.551
					c-2.189-0.04-4.259-0.04-6.197-0.06c-2.242-0.024-4.312-0.286-6.192-0.294c-2.372-0.009-4.446,0.357-6.19,0.357
					c-2.304,0-4.116-0.361-5.672-0.606c-2.433-0.383-4.349-0.375-5.49-1.517c-1.584-1.296-1.22-3.268-1.22-7.3
					c0-3.47-1.25-3.47-1.25-6.941c0-3.474,0.647-3.474,0.647-6.947c0-3.476-0.634-3.476-0.634-6.952s3.153-4.529,0.563-6.847
					c-2.896-2.59-3.792-0.428-7.678-0.428c-3.889,0-3.889-0.205-7.778-0.205c-3.889,0-4.279-1.194-7.881,0.273
					c-1.467,0.598,0.882,1.885,0.779,3.466c-0.304,1.519-1.966,2.534-5.446,2.795c-1.469,0.11-3.406-0.031-5.885-0.031
					c-2.881,0-3.688-0.647-3.832-2.664c0.144-2.297,0.411-4.21,0.475-6.288c0.057-1.845,0.072-3.82,0.09-6.303
					c0.012-1.789,0.33-3.842,0.332-6.302c0.002-1.852,0.105-3.934,0.105-6.306c0-2.935-0.557-4.908-0.59-6.561
					c-0.045-2.24-0.295-4.43-0.543-7.082c3.394,1.372,5.979,2.41,8.182,3.331c2.189,0.915,4.193,2.418,7.567,3.854
					c3.747,0.492,3.802,0.509,7.581,0.509c3.78,0,3.951,0.451,7.575-0.627c1.151-2.592,2.357-4.522,3.509-8.986
					c-0.256-1.066-1.636,1.56-2.719,1.388c-0.732-0.116-0.994-1.003-0.646-1.658c2.298-1.671,4.142-3.527,6.039-5.158
					c2.074-1.782,4.339-3.181,6.113-5.109c1.749-1.899,3.7-3.73,5.337-5.965c1.468-2.004,2.294-4.198,3.808-6.619
					c-3.327-1.41-3.47-0.073-7.084-0.073c-3.617,0-3.617-0.768-7.235-0.768c-3.62,0-3.62,0.263-7.239,0.263
					c-3.62,0-3.773-0.892-7.324-0.186c0,1.44-0.001,1.971-0.001,3.555c2.443,0.33,4.497,1.149,6.268,1.481
					c2.721,0.51,4.662,0.779,6.084,1.431c2.506,1.148,3.112,2.307,3.112,4.611c0,3.6-2.275,6.906-5.012,6.906
					c-1.439,0-1.469-0.71-3.34-4.167c-1.004-1.881-2.359-3.107-3.294-4.343c-1.211-1.602-2.074-2.467-3.537-3.442
					c0.144,1.584-0.661,2.175-0.661,4.479c0.054,3.564,1.359,3.541,1.431,7.104c0.072,3.564-0.005,3.592-0.115,7.154
					c-0.432,2.16-2.435,2.368-9.347,2.368c-2.881,0-3.546-0.217-3.689-1.801c0-2.16,0.316-2.155,0.604-7.195
					c0.125-3.455,0.161-3.417-0.682-6.77c-1.467,1.65-2.16,3.218-3.688,4.641c-1.569,1.46-3.454,2.517-5.18,3.807
					c-1.664,1.245-3.059,3-4.951,4.152c-1.742,1.06-3.317,1.964-5.32,2.999c-0.131,2.518-0.936,4.595-1.098,6.93
					c-0.174,2.521-0.433,4.932-0.647,7.258c-0.233,2.522-0.276,4.956-0.563,7.269c-0.313,2.518-0.066,5.021-0.453,7.319
					c-0.42,2.498-1.63,4.744-2.147,7.02c-0.56,2.458-1.671,4.639-2.358,6.883c-0.731,2.387-1.512,4.62-2.406,6.82
					c-0.924,2.277-1.026,4.883-2.146,7.021c-1.119,2.139-3.27,3.668-4.602,5.733c-1.288,1.997-2.238,4.244-3.744,6.229
					c-1.423,1.874-2.642,4.366-4.273,6.28c-0.794,0.271-0.82-0.673-0.978-1.498c0.854-2.203,0.826-4.333,1.562-6.536
					c0.739-2.213,1.721-4.347,2.348-6.614c0.614-2.222,1.438-4.431,1.95-6.754c0.492-2.229,0.791-4.559,1.195-6.925
					c0.382-2.235,0.979-4.518,1.287-6.914c0.289-2.24,0.548-4.574,0.776-6.985c0.214-2.245-0.205-4.625-0.04-7.042
					c0.153-2.25,0.559-4.564,0.672-6.984c0.106-2.255,0.037-4.596,0.111-7.016c0.069-2.261,0.445-4.591,0.488-7.008
					c0.04-2.266-0.391-4.609-0.371-7.023c0.018-2.271,0.078-4.607,0.078-7.019c0-2.669,0.442-5.202,0.433-7.615
					c-0.012-2.674-0.937-5.196-0.961-7.605c-0.027-2.674,0.306-5.203,0.261-7.617c-0.049-2.655,0.031-5.177-0.04-7.607
					c-0.077-2.619-0.151-5.133-0.257-7.603c-0.109-2.559-0.525-5.654-0.668-8.181c2.484,1.199,4.553,3.19,6.279,4.053
					c2.215,1.106,4.496,1.187,6.547,2.294c1.729,0.933,3.449,1.971,5.854,3.312c3.347,0.49,3.32,0.421,6.703,0.421
					c3.381,0,3.381-0.095,6.762-0.095c3.384,0,3.384-0.387,6.768-0.387c3.386,0,3.386,0.657,6.772,0.657
					c3.386,0,4.317,2.195,7.006,0.137c2.058-1.576-0.37-2.898-0.37-5.49c0-3.168-0.349-5.311-0.925-9.054
					c4.609,0.432,8.395,1.278,10.699,1.422c2.637,0.209,4.85-0.413,6.521-0.196c4.079,0.529,5.148,1.851,5.148,3.077
					c0,1.152-1.395,1.567-6.002,3.007c-1.643,2.876-1.585,4.31,0.932,6.464c2.938,2.516,3.471,0.561,7.34,0.561
					s3.869,0.344,7.737,0.344c3.87,0,3.87-0.557,7.741-0.557s3.926,0.812,7.683-0.123c2.087-2.446,3.073-4.18,4.458-5.745
					c1.387-1.567,3.354-2.108,5.516-4.486c2.227,1.514,3.611,2.434,5.163,3.523c1.919,1.346,3.74,2.244,5.617,3.654
					c1.516,1.138,3.595,1.96,5.728,3.604c0.576,0.72,1.092,1.417,1.092,1.706c0,0.576-1.306,0.699-2.313,0.699
					c-3.589,0-3.589,0.539-7.179,0.539s-3.59-0.679-7.18-0.679s-3.59,0.497-7.18,0.497s-3.59-0.265-7.179-0.265
					c-3.59,0-3.59,0.476-7.18,0.476c-3.591,0-3.591-0.405-7.181-0.405c-3.588,0-3.588,0.05-7.177,0.05s-3.589,0.404-7.179,0.404
					s-3.59,0.362-7.18,0.362s-3.59-0.78-7.179-0.78c-3.591,0-3.591-0.397-7.182-0.397c-3.589,0-3.589,0.911-7.177,0.911
					c-3.592,0-3.592-0.511-7.184-0.511c-3.594,0-3.643,0.693-7.188,0.104C51.974,26.458,51.521,25.192,48.469,27.088z
					 M35.196,142.548c2.373-0.783,4.363-2.099,6.393-2.876c2.345-0.898,4.741-1.138,6.698-2.07c2.252-1.073,4.345-2.098,6.193-3.28
					c2.039-1.304,3.534-3.122,5.231-4.646c1.71-1.537,3.397-3.053,4.921-4.907c1.479-1.896,2.465-4.002,3.574-6.007
					c1.157-2.093,3.073-3.83,3.796-6.021c0.739-2.246,0.478-5.014,0.725-7.34c2.483,0.369,4.888,0.98,6.812,1.304
					c2.672,0.449,4.855,0.761,6.576,1.146c4.295,0.96,5.491,1.887,5.491,2.74c0,1.008-0.519,0.886-4.551,2.038
					c-1.002,2.314-2.297,4.595-3.521,6.608c-1.292,2.123-2.198,4.41-3.755,6.229c-1.582,1.848-3.229,3.657-5.106,5.227
					c-1.829,1.531-3.791,3.012-5.918,4.31c-1.92,1.179-4.091,1.985-6.249,2.939c-2.023,0.894-3.961,2.332-6.248,3.046
					c-2.092,0.654-4.556,0.358-6.914,0.876c-2.136,0.47-4.359,0.965-6.746,1.334c-2.167,0.335-4.373,0.632-6.771,0.894
					C34.848,143.889,34.666,143.289,35.196,142.548z M91.355,87.829c2.753-3.695,2.291-5.155-0.461-8.851
					c-2.048-2.751-2.955-0.476-6.385-0.476c-3.434,0-3.434-0.109-6.866-0.109s-4.563-2.334-6.614,0.418
					c-2.752,3.695-2.902,5.258-0.151,8.955c2.049,2.751,3.331-0.398,6.761-0.398c3.434,0,3.391,0.255,6.732,1.041
					C88.001,89.26,89.305,90.582,91.355,87.829z M91.355,101.077c2.85-4.244,2.371-5.639-0.478-9.883
					c-1.911-2.848-2.938-0.452-6.368-0.452c-3.434,0-3.434-0.109-6.866-0.109s-4.691-2.444-6.605,0.406
					c-2.85,4.244-3.005,5.735-0.156,9.979c1.911,2.848,3.327-0.403,6.757-0.403c3.434,0,3.392,0.237,6.729,1.04
					C88.017,102.532,89.441,103.927,91.355,101.077z M127.355,78.635c-2.335-2.894-3.705,0.582-7.423,0.582
					c-3.721,0-3.721-0.715-7.441-0.715s-5.284-2.918-7.621-0.023c-2.895,3.585-2.47,5.578,0.424,9.164
					c2.335,2.894,3.474,0.072,7.192,0.072c3.721,0,3.721-0.348,7.441-0.348s4.452,2.764,7.721,0.985
					C131.906,86.034,130.249,82.221,127.355,78.635z M105.064,90.874c-3.008,4.133-2.543,5.73,0.465,9.864
					c2.187,3.007,3.238,0.471,6.957,0.471c3.721,0,3.721,0.109,7.441,0.109s4.998,2.593,7.188-0.416
					c3.008-4.133,3.159-5.832,0.152-9.966c-2.188-3.007-3.618,0.399-7.336,0.399c-3.721,0-3.687-0.184-7.308-1.041
					C108.687,89.364,107.254,87.866,105.064,90.874z"/>
			</g>
			<g>
				<path d="M165.82,89.141c3.268,0.823,5.735,1.827,7.685,2.675c3.678,1.601,5.111,3.145,5.111,5.451
					c0,2.808-2.284,5.567-4.588,5.567c-1.224,0-1.766-0.003-2.917-3.244c-0.796-2.134-1.333-3.744-2.221-5.216
					c-0.88-1.46-1.895-2.848-3.4-4.569C165.273,89.477,165.466,89.124,165.82,89.141z M165.892,115.064
					c4.536,0.863,4.536,1.08,5.329,1.08c1.008,0,1.802-0.726,2.665-2.381c0.589-1.095,2.06-3.773,3.634-6.952
					c1.119-2.257,1.856-4.98,2.963-7.283c1.382-2.874,2.621-5.12,3.675-7.494c1.033-2.326,2.087-4.692,3.299-7.685
					c0.305-0.383,1.071-0.161,0.982,0.32c-0.733,3.96-0.938,3.928-2.145,7.771c-1.206,3.842-1.539,3.737-2.744,7.579
					c-1.206,3.845-1.257,3.829-2.463,7.673c-1.206,3.844-0.946,3.926-2.159,7.769c-0.721,2.231-1.094,3.554-1.094,4.49
					c0,0.648,0.372,1.362,0.805,2.658c1.224,3.312,1.081,4.759,1.081,6.487c0,2.169-0.364,4.268-1.638,5.732
					c-1.35,1.55-3.384,2.417-5.494,2.417c-1.439,0-2.366-0.805-2.366-2.029c0-0.648,0.297-1.48,0.514-2.345
					c0.576-3.24,1.16-7.592,1.16-9.968c0-2.016-0.55-3.71-1.558-4.791c-0.793-0.864-2.014-1.161-4.605-2.097
					C165.276,115.725,165.418,115.071,165.892,115.064z M170.499,73.516c3.453,0.803,6.036,1.765,8.051,2.566
					c3.95,1.57,5.322,3.081,5.322,5.561c0,2.736-2.211,5.423-4.3,5.423c-1.151,0-1.903-0.137-2.552-1.722
					c-1.028-2.519-1.719-4.386-2.76-6.041c-1.072-1.704-2.296-3.256-4.159-5.193C169.882,73.81,170.16,73.496,170.499,73.516z
					 M218.674,104.046c2.017-2.304,3.856-4.177,5.657-6.193c3.6,2.736,4.598,3.497,8.055,6.593c0.287,0.36,0.277,0.454,0.277,0.598
					c0,0.288-0.094,0.774-0.525,0.774c-3.958,0-3.958-0.169-7.917-0.169c-3.961,0-3.961-0.052-7.923-0.052s-4.006-0.642-7.922-0.04
					c-0.6,1.31-1.488,3.665-2.711,5.924c-1.13,2.086-2.634,4.033-3.532,5.484c-1.729,2.809-3.304,5.069-6.111,8.886
					c2.715-0.126,5.306-0.409,7.632-0.551c2.686-0.164,5.162-0.249,7.521-0.445c2.588-0.214,4.832-0.484,7.285-0.75
					c-1.229-2.527-1.83-4.549-2.983-6.373c-1.213-1.917-2.938-3.463-4.673-5.566c-0.168-0.426,0.377-0.855,0.816-0.725
					c3.07,1.746,5.441,3.125,7.373,4.442c2.689,1.834,4.431,3.641,6.4,5.694c3.097,3.24,4.197,5.141,4.197,7.302
					c0,3.528-2.421,7.291-4.797,7.291c-1.08,0-1.757-0.586-2.62-3.25c-0.648-2.16-1.3-3.665-2.38-6.113
					c-3.124,0.943-4.918,1.536-7.622,2.235c-1.914,0.496-4.29,0.922-7.804,1.748c-2.115,0.497-4.582,1.408-7.711,2.133
					c-2.27,0.526-5.008,0.717-7.959,1.4c-0.287,2.232-0.627,3.174-1.348,3.174c-0.654,0-0.926-0.671-2.159-5.564
					c-0.396-1.569-1.001-3.568-1.612-6.104c2.952,0.144,4.203,0.352,6.004,0.352c0.648,0,1.314-0.43,3.043-0.43
					c0.731-1.958,1.996-3.959,2.765-6.391c0.717-2.267,0.979-4.746,1.585-6.948c0.727-2.647,1.493-5.105,1.837-6.929
					c-4.918-0.928-5.018,0.108-10.022,0.108c-1.655,0-3.055,0.196-4.639,0.484c-0.887-0.979-1.393-1.774-0.619-2.844
					c2.016,0.504,3.53,0.988,5.258,0.988c3.15,0,3.15-0.012,6.301-0.012s4.127,2.119,6.155-0.292
					c2.411-2.865-0.114-3.623-0.114-7.367s3.088-5.032,0.345-7.58c-2.955-2.744-4.117-0.095-8.149-0.095
					c-1.656,0-2.453,0.201-3.895,0.561c-0.837-0.966-1.285-1.453-0.559-2.504c1.873,0.432,2.869,0.677,4.525,0.677
					c3.996,0,4.702,2.222,7.848-0.244c2.465-1.933,0.459-2.948,0.459-6.08c0-3.384-0.543-5.466-0.977-8.995
					c9.217,0.864,9.794,1.261,10.587,1.477c0.647,0.216,0.894,0.461,0.894,0.893c0,0.648-0.363,0.941-2.955,2.021
					c-1.004,2.526,0.114,2.713,0.114,5.431s-2.337,3.851-0.103,5.399c3.226,2.235,4.012,0.978,7.801-0.043
					c2.305-2.736,3.049-3.596,5.353-6.116c3.602,2.736,4.406,3.826,7.79,6.778c0.288,0.36,0.426,0.282,0.426,0.499
					c0,0.216-0.082,0.24-0.514,0.24c-3.479,0-3.479-0.141-6.957-0.141c-3.48,0-3.48,0.11-6.962,0.11s-4.476-2.219-6.846,0.331
					c-2.549,2.742,0.178,3.636,0.178,7.38s-2.04,4.174-0.185,7.426C211.701,108.093,214.051,104.977,218.674,104.046z"/>
			</g>
			<g>
				<path d="M268.13,132.016c2.327-0.717,4.502-1.529,6.442-2.411c2.182-0.992,4.351-1.732,6.134-2.985
					c1.883-1.322,3.514-2.917,5.062-4.594c1.618-1.74,3.036-3.594,4.106-5.59c1.085-2.025,1.969-4.205,2.495-6.489
					c0.501-2.175,0.388-4.515,0.388-6.918c0-2.882-0.318-5.473-1.105-7.78c-0.899-2.637-2.06-5.078-3.895-6.879
					c-1.825-1.791-4.299-2.866-6.952-3.74c-2.316-0.763-4.897-1.177-7.774-1.177c-0.937,0-1.683-0.019-3.051,0.125
					c2.521,2.952,3.565,4.833,3.565,7.641c0,1.799-0.57,3.986-1.221,6.456c-0.516,1.955-0.955,4.152-1.805,6.333
					c-0.769,1.973-1.869,3.913-2.86,5.936c-0.959,1.956-2.013,3.896-3.135,5.782c-1.782,2.962-3.225,5.584-4.856,7.431
					c-2.653,3.002-5.291,4.467-7.521,4.467c-1.584,0-3.276-0.87-4.068-2.094c-0.576-1.08-0.556-2.263-1.203-4.927
					c-0.433-1.728-1.338-2.623-3.428-5.215c-1.727-2.16-2.719-5.375-2.719-8.327c0-2.402,0.524-5.106,1.688-7.733
					c1.034-2.335,2.447-4.704,4.209-6.771c1.618-1.918,3.507-3.714,5.612-5.212c2.04-1.451,4.368-2.596,6.751-3.599
					c2.311-0.974,4.843-1.394,7.37-1.898c2.467-0.492,4.961-1.158,7.534-1.158c2.384,0,4.722,0.097,6.88,0.525
					c2.329,0.461,4.468,1.422,6.481,2.334c2.145,0.971,4.035,2.266,5.754,3.691c1.783,1.479,3.451,3.072,4.701,4.973
					c1.244,1.891,2.109,4.032,2.751,6.274c0.608,2.125,1.202,4.391,1.202,6.774c0,2.638-0.434,5.204-1.151,7.552
					c-0.746,2.438-2.139,4.595-3.62,6.67c-1.429,2-3.049,3.96-5.127,5.575c-1.906,1.481-4.103,2.792-6.524,3.912
					c-2.503,1.171-5.135,1.808-8.224,2.55c-2.42,0.582-5.137,1.311-8.458,1.754C267.871,133.207,267.73,132.354,268.13,132.016z
					 M254.975,91.381c-1.565,1.565-2.888,3.198-3.995,4.954c-1.176,1.866-2.465,3.641-3.086,5.633
					c-0.649,2.083-0.873,4.271-0.873,6.388c0,2.053,0.359,4.186,1.022,5.917c0.942,2.459,2.525,4.386,3.962,4.386
					c1.165,0,2.786-1.75,4.805-4.258c1.154-1.435,2.468-3.159,3.754-5.227c1.052-1.691,2.402-3.421,3.476-5.453
					c1.461-2.747,2.363-5.521,3.302-7.873c1.374-3.442,2.151-6.278,2.151-8.16c0-0.792,0.184-1.779-0.031-2.427
					c-0.145-0.576-0.661-1.451-0.732-1.451c-2.898,0.644-5.398,1.285-7.609,2.47C258.879,87.482,257.075,89.317,254.975,91.381z"/>
			</g>
			<g>
				<path d="M334.978,89.633c0.152-2.28,0.313-4.171,0.394-5.974c0.11-2.468,0.157-4.499,0.157-6.122
					c0-1.656-0.146-2.545-0.434-4.489c2.647,0.195,4.774,0.743,6.408,0.891c4.988,0.451,5.723,0.498,5.723,1.366
					c0,0.792-0.737,1.26-2.753,1.908c-0.096,2.621-0.372,4.582-0.472,6.294c-0.124,2.146-0.004,3.864-0.244,6.187
					c4.331,1.153,4.46,0.123,8.942,0.123s4.592,0.953,8.99,0.088c1.656-2.088,2.135-2.866,4.008-4.954
					c2.879,2.232,3.711,3.177,6.519,5.337c0.721,0.648,0.854,0.786,0.854,1.146c0,0.72-0.683,1.365-2.554,2.157
					c-0.125,2.5-0.521,4.804-0.644,6.956c-0.146,2.543-0.023,4.871-0.172,6.985c-0.183,2.598-0.153,4.916-0.352,6.975
					c-0.258,2.669-0.799,4.907-1.107,6.897c-0.414,2.662-1.077,4.771-1.641,6.756c-1.008,3.601-2.849,6.642-5.515,7.794
					c-2.16,0.936-5.686,1.654-8.278,1.654c-0.505,0-0.587-0.391-0.587-0.967c-0.289-2.304-0.825-3.031-1.833-3.967
					c-0.924-0.876-2.573-1.678-5.414-2.587c-1.593-0.51-3.476-1.217-5.829-1.812c-0.365-0.233-0.376-0.774,0.049-0.861
					c3.162,0.199,5.85,0.691,8.089,0.824c5.051,0.301,7.769,0.226,8.118,0.226c2.592,0,2.984-0.62,3.848-4.004
					c0.398-1.675,1.062-3.843,1.41-6.521c0.258-1.972,0.586-4.192,0.805-6.63c0.186-2.068,0.396-4.297,0.548-6.658
					c0.136-2.117-0.102-4.365,0.002-6.686c0.096-2.147,0.179-4.22,0.243-6.518c-2.923-1.088-3.062,0.05-6.181,0.05
					c-3.121,0-3.121-0.227-6.242-0.227s-3.356-1.167-6.225,0.064c-0.291,2.805-0.465,5.387-0.87,7.795
					c-0.47,2.794-1.092,5.343-1.738,7.695c-0.745,2.705-1.797,5.088-2.813,7.347c-1.109,2.467-2.346,4.729-3.829,6.849
					c-1.175,1.7-2.368,3.477-3.87,5.026c-1.438,1.484-3.315,2.556-5.015,3.88c-1.637,1.273-3.06,2.951-4.903,4.057
					c-2.808,1.656-5.121,2.513-9.656,4.457c-0.439,0.102-0.526-0.349-0.262-0.714c1.96-1.325,3.79-2.578,5.479-3.976
					c1.809-1.496,3.166-3.375,4.683-4.991c1.58-1.684,2.868-3.512,4.154-5.365c1.288-1.857,2.936-3.514,3.95-5.583
					c0.976-1.989,1.843-4.122,2.587-6.346c0.695-2.077,0.911-4.379,1.421-6.692c0.469-2.129,1.266-4.298,1.591-6.651
					c0.298-2.16,0.247-4.463,0.435-6.831c-3.58-1.156-3.763,0.317-7.525,0.317s-3.763-0.48-7.524-0.48
					c-2.52,0-3.537,0.156-6.058,0.517c-1.079-0.822-1.422-1.507-0.419-2.419c2.881,0.504,5.109,0.387,6.837,0.387
					c3.69,0,3.683,0.111,7.359,0.415C331.314,90.329,331.445,90.703,334.978,89.633z"/>
			</g>
			<g>
				<path d="M391.108,90.002c1.331,0,2.74-0.565,6.497-1.435c1.639-0.38,3.792-0.593,6.502-1.271
					c1.834-0.458,3.848-1.424,6.316-2.051c2.342-0.609,4.251-0.989,7.999-1.829c2.013-0.451,4.546-1.091,7.993-1.846
					c2.88-0.648,3.868-0.548,5.956-1.484c1.009-0.432,1.868-0.516,2.66-0.516c1.296,0,3.446,0.792,5.175,1.944
					c1.871,1.224,2.699,2.359,2.699,3.727c0,1.729-1.105,2.875-3.266,2.875c-0.432,0-1.083-0.106-1.875-0.178
					c-0.937-0.072-1.221-0.149-2.085-0.149c-2.226,0-4.318,0.646-6.397,1.276c-2.088,0.634-4.129,1.348-5.97,2.58
					c-1.782,1.192-3.59,2.492-5.048,4.208c-1.813,2.023-2.803,4.459-3.755,6.763c-1.015,2.454-1.636,4.905-1.636,7.467
					c0,3.028,0.697,5.664,2.152,7.866c1.485,2.249,3.588,4.059,6.39,5.114c1.799,0.72,4.038,1.445,5.767,1.445
					c0.145,0,0.367-0.244,0.799-0.315c0.288,0,0.498-0.342,0.713-0.342c1.369,0,2.688,0.751,3.769,1.759
					c1.801,1.584,2.752,3.555,2.752,5.211c0,2.304-1.552,3.247-5.008,3.247c-2.63,0-5.503-0.206-8.168-1.143
					c-2.663-0.936-4.98-2.634-7.031-4.29c-1.637-1.324-3.255-2.588-4.366-4.246c-1.134-1.689-1.765-3.643-2.329-5.633
					c-0.536-1.895-0.925-3.881-0.925-6.009c0-2.181,0.628-4.334,1.342-6.553c0.666-2.069,1.217-4.298,2.442-6.279
					c1.149-1.857,2.558-3.677,4.15-5.359c1.641-1.725,3.321-2.942,5.554-4.461c1.59-1.081,3.504-2.271,6.079-3.708
					c-2.109,0.466-4.319,0.978-6.561,1.591c-2.152,0.589-4.391,1.07-6.542,1.759c-2.185,0.7-4.34,1.464-6.397,2.23
					c-2.404,0.895-3.926,1.988-5.273,2.565c-2.122,0.909-3.656,1.104-5.418,2.249c-1.297,0.864-2.272,1.656-3.424,1.656
					c-2.034,0-4.476-2.058-6.366-4.524c-1.723-2.247-3.092-4.966-3.092-7.232c0-0.648,0.249-1.159,0.682-2.095
					C386.22,88.116,388.301,90.002,391.108,90.002z M430.043,94.466c2.592,0.864,5.389,1.581,7.693,2.877
					c2.592,1.44,3.481,3.021,3.481,5.109c0,2.088-1.073,4.107-2.513,4.107c-0.648,0-1.277-0.663-1.854-1.815
					c-1.101-2.3-2.085-3.916-3.103-5.338c-1.181-1.65-2.163-3.208-3.98-4.717C429.559,94.467,429.655,94.438,430.043,94.466z
					 M437.128,91.083c2.664,0.432,5.065,0.711,7.37,1.792c2.953,1.296,4.062,2.952,4.062,5.185c0,2.088-0.928,4.037-2.295,4.037
					c-0.648,0-1.207-0.594-1.711-1.747c-0.951-2.011-2.016-3.544-3.295-4.993c-1.238-1.403-2.433-2.939-4.311-4.215
					C436.793,91.019,436.838,91.09,437.128,91.083z"/>
			</g>
			<g>
				<path d="M454.104,119.162c2.595,0.596,4.936,1.364,7.186,2.121c2.37,0.797,4.618,1.71,6.907,2.818
					c1.971,0.968,3.477,1.992,4.491,3.249c1.174,1.454,1.744,3.154,1.744,5.201c0,3.457-2.035,6.762-4.124,6.762
					c-0.504,0-0.936-0.483-1.584-1.275c-0.215-0.288-0.202-0.282-3.659-5.97c-1.414-2.357-3.148-4.553-5.037-6.608
					c-1.861-2.026-3.938-3.882-6.19-5.527C453.514,119.6,453.718,119.179,454.104,119.162z"/>
			</g>
		</g>
	</g>
	<g>
		<g>
			<g>
				<path d="M139.088,224.595c0.655,1.521,2.068,0.155,3.592-0.494c1.713-2.141,3.333-2.914,4.456-4.27
					c1.144-1.381,1.912-2.684,3.729-4.717c2.488,2.204,4.047,3.402,5.63,4.842c1.623,1.476,3.468,2.681,5.8,5.014
					c0.432,0.72,0.155,1.175,0.155,1.607c0,0.432-0.34,0.211-1.203,0.211c-3.622,0-3.622,0.916-7.244,0.916
					c-3.625,0-3.625,0.043-7.25,0.043s-4.801-2.981-7.153-0.224c-2.758,3.231-1.912,4.562-0.375,8.522
					c3.744,1.152,7.09,2.263,9.826,3.847c2.141,1.196,3.887,2.213,4.968,3.443c1.392,1.584,2.14,3.517,2.14,5.706
					c0,2.254-1.457,4.451-2.73,6.326c-1.492,2.198-3.342,3.487-5.285,3.487c-1.728,0-2.294-0.573-3.303-6.477
					c-0.614-3.275-0.657-5.452-1.347-7.234c-0.765-1.98-2.536-3.715-4.431-6.367c-1.389,3.289-0.227,3.756-0.227,7.326
					c0,3.568,0.646,3.568,0.646,7.136c0,3.571,0.021,3.571,0.021,7.142c0,3.573-0.151,3.573-0.151,7.146s0.42,3.573,0.42,7.147
					c0,2.702-0.816,5.14-0.816,7.347c0,2.793,0.862,5.219,0.863,7.346c0.001,2.965,0.327,5.35,0.331,7.343
					c0.006,3.197-0.381,5.386-0.363,7.344c0.021,2.338-0.562,4.349-0.515,7.344c0,2.404-0.311,3.646-3.182,4.125
					c-1.428,0.238-3.413-0.281-6.092-0.281c-4.752,0-5.588,0.041-5.588-2.551c0.084-2.562,0.208-4.854,0.274-6.936
					c0.083-2.611,0.212-4.886,0.272-6.938c0.076-2.598,0.318-4.831,0.369-6.931c0.059-2.379-0.604-4.597-0.561-6.948
					c0.039-2.113,1.101-4.329,1.144-6.917c0.033-2.05-0.747-4.335-0.704-6.949c0.043-3.78-0.334-3.783-0.298-7.563
					c0.036-3.78,1.237-3.821,0.476-7.523c-1.148,2.321-2.332,4.268-3.4,6.211c-1.241,2.26-2.519,4.223-3.74,6.1
					c-1.366,2.1-2.41,4.228-3.879,6.03c-1.498,1.839-2.979,3.682-4.725,5.413c-1.607,1.595-3.364,3.634-5.298,5.304
					c-0.804,0.165-1.878-0.766-1.875-1.586c1.306-2.194,3.26-4.219,4.426-6.376c1.205-2.229,1.593-4.822,2.662-7.051
					c1.086-2.263,1.991-4.554,2.951-6.858c0.956-2.293,2.304-4.42,3.15-6.794c0.827-2.319,1.647-4.665,2.384-7.099
					c0.707-2.339,0.961-4.84,1.596-7.32c0.604-2.356,1.063-4.79,1.613-7.303c0.518-2.37,1.507-4.161,1.985-6.695
					c-4.725-1.286-4.755-0.574-9.651-0.574c-2.879,0-5.047,0.35-7.639,0.926c-1.565-2.021-2.075-2.792-0.994-5.11
					c2.881,0.72,5.897,1.759,8.633,1.759c2.844,0,2.844-0.358,5.688-0.358s3.798,1.941,5.651-0.216
					c2.157-2.511-0.214-3.278-0.214-6.589c0-3.312,0.291-3.312,0.291-6.625s1.441-3.645,0.264-6.741
					c-2.386,0.355-4.641,0.524-6.512,0.78c-1.958,0.269-3.813,0.906-6.141,1.165c-1.759,0.196-3.906,0.509-6.355,0.75
					c-0.743-0.347-0.996-1.362-0.483-2.003c2.403-0.882,4.763-1.521,6.76-2.307c2.355-0.927,4.506-1.75,6.506-2.643
					c2.201-0.983,4.311-1.886,6.371-2.963c1.992-1.041,3.824-2.461,5.963-3.721c3.114-1.843,5.167-3.445,7.03-4.774
					c2.359-1.683,4.456-2.477,6.789-4.729c2.226,1.536,4.348,2.014,6.016,3.167c2.451,1.694,3.701,3.923,5.162,4.959
					c4.812,3.414,5.608,3.273,5.608,4.227c0,0.72-1.162,2.105-2.313,2.105c-1.584,0-3.656-1.631-5.674-2.208
					c-3.09,1.112-5.094,2.892-7.002,3.508c-2.538,0.819-4.857,0.839-7.652,1.579c-1.21,3.643,0.517,3.894,0.517,7.732
					c0,3.841,0.666,3.955,0.056,7.747C139.264,220.785,137.566,221.068,139.088,224.595z M186.581,262.098
					c1.284-1.852,2.668-4.008,3.86-5.919c1.185-1.899,3.043-3.413,4.152-5.39c1.089-1.939,2.029-4.003,3.06-6.037
					c1-1.975,1.804-4.092,2.763-6.174c0.923-2.003,1.463-4.221,2.359-6.339c0.825-1.936,2.235-3.738,3.045-5.829
					c0.778-2.01,1.804-3.987,2.539-6.053c0.739-2.074,0.585-4.456,1.253-6.5c0.698-2.14,1.307-4.245,1.896-6.256
					c0.656-2.235,1.405-4.305,1.885-6.253c0.72-3.024,1.446-4.91,1.879-9.518c4.464,1.152,7.627,1.83,9.93,2.406
					c2.58,0.685,4.686,1.053,6.283,1.554c4.111,1.288,5.599,2.391,5.599,3.428c0,1.584-2.096,1.928-6.991,2.792
					c-0.816,2.301-1.871,4.6-2.651,6.725c-0.843,2.295-1.154,4.684-1.967,6.796c-0.877,2.281-2.14,4.302-2.994,6.397
					c-0.921,2.259-1.998,4.336-2.911,6.414c-0.976,2.223-2.116,4.255-3.103,6.312c-1.041,2.169-1.512,4.539-2.589,6.575
					c-1.112,2.101-2.231,4.154-3.411,6.169c-1.184,2.022-2.535,3.933-3.814,5.926c-1.25,1.945-2.203,4.124-3.57,6.095
					c-1.221,1.76-3.102,2.977-4.341,4.634c-1.265,1.692-1.867,3.866-3.188,5.498c-1.311,1.617-2.42,3.439-3.822,5.043
					c-1.354,1.547-2.999,2.715-4.471,4.292c-0.605,3.877-0.613,3.887-0.613,7.811s0.503,3.924,0.503,7.848
					c0,1.728-0.257,2.978,0.319,3.41c0.61,0.407,2.498,0.24,6.494,0.317c1.658,0.032,3.728,0.095,6.306,0.095
					c2.497,0,4.417-0.037,5.88-0.286c2.588-0.44,4.091-1.362,4.919-3.109c0.723-1.447,0.865-3.714,1.889-6.77
					c0.608-1.818,2.272-3.703,3.071-6.371c0.588-1.966,0.453-4.423,1.175-6.95c0.583-2.042,1.006-4.631,1.689-7.089
					c0.626-0.6,2.093-0.335,2.264,0.515c0.738,3.67-0.523,3.766-0.62,7.508c-0.096,3.744-0.192,3.742-0.288,7.486
					c-0.097,3.745,0.292,3.755,0.216,7.5c-0.02,0.936,0.15,0.936,0.15,1.872c0,1.296,0.516,1.347,1.956,2.067
					c4.463,2.304,5.663,4.125,5.663,7.724c0,3.312-2.17,5.492-5.338,6.932c-1.728,0.864-3.932,2.207-7.692,2.531
					c-2.181,0.188-4.86,0.417-8.116,0.481c-2.361,0.046-5.056-0.424-8.113-0.424c-1.008,0-1.584-0.047-2.16-0.047
					c-1.152,0-2.447,0.425-6.336,0.425c-3.303,0-6.091,0.009-8.314-0.254c-3.687-0.436-6.354-1.612-7.823-3.253
					c-1.508-1.685-1.638-4.522-1.807-8.12c-0.06-4.319,1.037-4.459-0.065-8.636c-1.895,1.46-3.58,2.895-5.35,4.12
					c-1.865,1.291-4.081,1.892-6.041,3.056c-1.842,1.093-3.586,2.464-5.718,3.565c-1.851,0.956-3.742,2.145-5.952,3.187
					c-1.88,0.887-3.957,2.024-6.184,3.024c-0.775-0.074-1.081-0.804-0.803-1.531c1.92-1.464,3.861-2.599,5.525-3.908
					c1.893-1.489,3.585-2.97,5.224-4.327c1.827-1.513,3.26-3.273,4.878-4.717c1.715-1.529,3.246-3.138,4.857-4.706
					c1.581-1.54,3.19-3.069,4.801-4.76c1.479-1.555,3.203-3.031,4.81-4.806c0.642-3.735,0.067-3.796,0.067-7.586
					c0-3.791,0.105-3.791,0.105-7.582c0-3.792-0.344-3.792-0.344-7.584c0-3.791-0.264-3.791-0.264-7.582
					c0-3.794,0.864-3.794,0.864-7.587s-0.939-3.793-0.939-7.587c0-2.406,1.104-4.387,1.069-6.166
					c-0.043-2.176-1.059-4.041-1.18-6.112c-0.105-1.809-0.364-4.29-0.552-6.673c2.784,0.307,5.553,1.63,7.646,1.872
					c3.064,0.353,5.574-0.383,7.417-0.119c5.755,0.827,6.053,1.871,6.053,3.087c0,1.296-1.089,2.304-5.12,3.6
					c-1.566,3.446,0.092,3.641,0.092,7.427c0,3.787,0.044,3.787,0.044,7.574c0,3.786-0.831,3.786-0.831,7.572
					c0,3.789,0.44,3.772,0.027,7.539C186.246,258.244,185.752,258.401,186.581,262.098z M162.36,241.001
					c0.633,2.306,1.786,3.949,2.162,5.861c0.427,2.174-0.116,4.31,0.053,6.456c0.155,1.976,0.356,4.01,0.356,6.378
					c0,2.528,0.008,4.916-0.348,7.162c-0.403,2.558-0.64,5.016-1.433,7.082c-0.968,2.519-2.711,4.278-4.135,5.846
					c-1.816,2-3.669,2.729-5.979,2.729c-1.986,0-4.021-0.804-5.189-3.234c-0.863-1.796-1.453-4.176-1.453-6.625
					c0-3.312,0.655-3.983,4.688-7.583c1.723-1.507,3.703-3.108,5.104-5.135c1.41-2.04,2.236-4.44,2.959-6.607
					c0.681-1.958,0.893-3.772,1.189-6.262c0.205-1.721,0.279-3.837,0.397-6.486C160.92,239.924,161.812,240.43,162.36,241.001z
					 M170.846,187.13c2.39,0.478,4.477,0.128,6.363,0.521c2.471,0.514,4.373,1.777,6.186,2.206c2.518,0.596,4.512,0.997,6.285,1.586
					c2.141,0.711,4.008,1.293,6.059,2.293c2.414,1.174,4.437,2.143,5.644,3.589c1.456,1.745,1.53,3.915,1.53,6.356
					c0,2.601-0.889,4.801-2.003,6.804c-1.415,2.542-2.929,4.834-5.104,4.834c-1.872,0-2.562-0.529-6.162-6.145
					c-1.039-1.599-2.583-3.948-4.584-6.385c-1.604-1.953-3.082-4.303-4.876-6.225c-1.5-1.583-3.18-2.703-5.073-4.375
					c-1.378-1.217-3.187-2.45-5.31-4.148C169.427,187.612,170.182,187.274,170.846,187.13z M218.489,239.981
					c2.639,1.746,5.173,2.594,7.154,4.072c2.527,1.885,4.054,4.244,5.867,6.017c2.041,1.995,3.813,3.886,5.484,6.226
					c1.252,1.752,2.293,3.12,2.908,4.524c0.801,1.827,1.509,3.42,1.509,5.211c0,1.981-1.155,3.928-2.074,5.89
					c-0.91,1.94-2.282,3.435-3.688,4.825c-1.719,1.699-3.2,3.515-4.997,3.515c-2.16,0-3.472-1.812-3.903-5.844
					c-0.272-2.331-0.442-4.66-0.874-6.978c-0.427-2.29-0.521-4.676-1.116-6.976c-0.58-2.239-1.615-4.386-2.367-6.656
					c-0.723-2.184-1.726-4.302-2.618-6.534c-0.851-2.128-1.873-4.316-2.888-6.505C216.727,240.022,217.632,239.852,218.489,239.981z
					"/>
			</g>
			<g>
				<path d="M289.992,262.541c1.68-1.8,2.183-2.02,3.982-3.7c3.12,2.16,4.174,2.572,7.113,4.972c0.42,0.42,0.354,0.947,0.354,1.247
					c0,0.18,0.107,0.61-0.072,0.73c-0.66,0.42-0.787,0.215-4.146,0.396c-2.64,1.74-3.596,2.365-6.596,3.925
					c2.4,1.8,2.435,1.883,4.954,3.803c0.181,0.18,0.387,0.326,0.387,0.446c0,0.24-0.301,0.156-0.66,0.156
					c-3.258,0-3.258,0.086-6.517,0.086c-3.261,0-3.261,0.384-6.521,0.384c-3.261,0-4.026-2.379-6.355-0.097
					c-2.281,2.236-0.02,3.025-0.02,6.22s-2.724,4.484-0.316,6.585c2.757,2.407,3.874,0.406,7.448-0.382
					c1.92-2.04,2.62-2.774,4.601-4.934c2.82,2.16,3.711,3.091,6.53,5.55c0.121,0.18,0.394,0.351,0.394,0.411
					c0,0.24-0.385,0.479-0.624,0.479c-3.028,0-3.028,0.101-6.057,0.101c-3.03,0-3.03-0.167-6.062-0.167
					c-3.03,0-4.436-2.558-6.209-0.1c-2.457,3.406,0.387,4.307,0.387,8.506c0,4.2-2.709,5-0.121,8.309
					c2.023,2.587,3.168-0.146,6.452-0.146s3.425,1.203,6.61,0.398c2.221-2.22,2.845-3.35,4.945-5.57
					c3.18,2.341,4.06,3.402,7.3,5.922c0.18,0.18,0.27,0.267,0.27,0.387c0,0.18-0.196,0.302-0.556,0.302
					c-3.504,0-3.504-0.132-7.008-0.132s-3.504,0.085-7.009,0.085s-3.505,0.101-7.01,0.101c-3.503,0-3.503,0.033-7.006,0.033
					c-3.506,0-3.506,0.145-7.012,0.145c-3.509,0-3.509-0.45-7.018-0.45s-3.509,0.117-7.017,0.117c-1.38,0-2.564,0.073-5.384,0.373
					c-0.967-0.508-1.331-1.072-0.587-1.872c2.221,0.36,3.871,0.602,5.91,0.602c4.305,0,4.305-0.067,8.609-0.067
					s5.679,3.022,8.761,0.016c3.007-2.933-0.194-4.354-0.194-8.554c0-4.2,3.288-5.732,0.07-8.431
					c-3.84-3.218-5.036-0.112-10.046-0.112c-1.979,0-3.153,0.158-5.673,0.458c-0.963-0.574-1.307-1.222-0.589-2.083
					c2.1,0.36,4.462,0.26,6.262,0.26c5.01,0,5.907,3.116,10.131,0.422c2.693-1.718-0.147-3.369-0.147-6.564s2.515-4.362-0.09-6.212
					c-3.669-2.605-4.373-0.061-8.873-0.061c-2.82,0-3.566-0.111-5.847,0.188c-0.926-0.579-1.511-1.36-0.796-2.185
					c2.16,0.3,4.602,0.692,6.643,0.692c4.027,0,4.027-0.149,8.056-0.149c4.03,0,4.03-0.129,8.061-0.129s4.115,1.03,8.056,0.177
					c1.92-2.16,2.52-2.8,4.439-4.839c0.48,0.3,0.791,0.566,1.15,0.926c0.54-1.56,0.517-2.377,1.177-5.497
					c-3.279-1.551-3.608-0.292-7.237-0.292c-3.63,0-3.63,0.009-7.26,0.009c-3.629,0-3.629,0.519-7.257,0.519
					c-3.632,0-3.632-0.513-7.263-0.513s-3.622,0.194-7.24,0.494c0,0.6-0.112,0.343-0.112,0.943c0,2.352-0.105,4.496-0.824,6.085
					c-1.004,2.223-2.826,3.651-4.785,3.651c-1.92,0-3.586-2.117-3.586-4.637c0-1.62,0.595-1.76,2.575-2.959
					c3.659-2.1,4.517-3.438,5.478-8.718c0.097-0.315,0.183-0.338,0.363-0.062c0.48,1.74,0.601,2.25,0.78,4.049
					c3.59,0.855,3.658,0.181,7.349,0.181s4.292,1.976,7.454,0.074c1.902-1.145-0.104-2.343-0.104-4.563
					c0-1.5-0.104-2.525-0.283-4.504c1.801,0.18,3.294,0.628,4.194,0.688c5.039,0.48,6.022,0.457,6.022,1.237
					c0,0.66-1.042,0.925-3.261,1.524c-0.937,2.532-1.898,3.869,0.231,5.528c2.732,2.13,3.487-0.056,6.947,0.12
					C286.551,263.049,286.601,263.25,289.992,262.541z M279.855,290.858c2.589,0.785,4.586,1.878,6.201,2.682
					c2.951,1.469,4.61,2.873,4.61,4.579c0,2.4-2.198,4.693-4.118,4.693c-0.779,0-1.354-0.121-1.715-1.201
					c-0.719-2.129-1.197-3.909-2.027-5.447c-0.9-1.67-2.016-3.111-3.391-4.735C279.241,291.118,279.604,290.822,279.855,290.858z"/>
			</g>
			<g>
				<path d="M310.994,264.583c2.7,2.28,4.536,2.904,8.256,2.904c1.92,0,3.709-0.06,6.049-0.6c1.2-2.1,2.17-5.126,2.17-6.747
					c0-2.04-1.642-3-5.062-3.78c1.26-0.72,1.942-1.216,3.323-1.216c2.1,0,4.794,0.607,6.834,1.447c1.68,0.72,2.706,1.75,2.706,2.77
					c0,0.48-0.56,0.959-1.28,1.739c-0.959,1.14-1.901,2.721-3.042,4.521c5.34-1.86,5.939-2.049,7.979-3.729
					c0.48-0.42,0.961-0.886,1.621-0.886c2.641,0,5.041,1.536,5.041,3.096c0,1.26-1.264,1.91-5.163,3.23
					c-1.963,0.665-3.915,1.5-6.084,2.024c-1.941,0.469-4.035,0.691-6.302,1.088c-1.8,2.58-2.1,3.401-2.76,4.361
					c-2.28,3.36-2.526,3.097-3.366,4.237c3.659-1.98,6.034-2.335,8.614-2.335c1.98,0,3.657,0.647,4.917,1.967
					c0.78,0.84,1.323,1.476,1.804,3.096c1.02-0.6,1.172-0.502,5.853-2.842c1.799-0.9,3.961-2.2,5.161-2.979
					c0.84-0.54,1.155-1.226,1.155-1.766c0-1.2-1.013-2.509-3.173-3.529c0.9-0.3,1.083,0.062,1.683,0.062
					c1.718,0,3.737,0.953,5.473,2.415c1.839,1.551,3.178,3.407,3.178,5.013c0,1.2-0.391,1.957-2.131,2.377
					c-3.016,0.793-5.798,1.503-8.269,2.338c-3.135,1.06-6.045,2.01-8.191,3.117c0.12,4.02,0.086,4.227,0.086,4.827
					c0,2.94,0.165,4.276-0.194,4.936c-0.48,0.96-1.71,1.372-2.971,1.372c-1.62,0-2.425-0.788-2.425-2.348
					c0-0.18-0.338-0.188-0.158-2.408c0.061-1.38,0.25-2.265,0.25-3.885c-2.379,1.334-4.229,2.554-5.587,3.673
					c-2.305,1.902-3.494,3.634-3.494,5.56c0,1.816,1.364,3.06,3.729,3.696c1.384,0.372,3.206,0.415,5.466,0.415
					c1.815,0,3.785,0.123,5.612-0.127c2.099-0.287,4.005-0.921,5.415-1.435c1.561-0.6,1.992-0.706,2.532-0.706
					c0.96,0,2.333,0.736,3.532,1.576c1.261,0.9,1.892,1.86,1.892,3c0,1.08-0.59,2.094-1.97,2.514
					c-1.318,0.392-3.317,0.73-5.835,0.898c-1.721,0.114-3.707,0.25-5.899,0.25c-2.723,0-5.005-0.458-6.963-0.74
					c-2.787-0.402-4.768-1.242-6.459-2.299c-2.281-1.44-3.529-3.503-3.529-6.323c0-2.88,1.334-5.901,4.395-8.841
					c1.439-1.38,2.85-2.517,6.988-5.217c-0.059-2.28-0.239-2.842-0.72-3.982c-0.54-1.02-1.451-1.753-2.711-1.753
					c-2.186,0-4.573,1.074-7.132,3.243c-1.726,1.463-3.624,3.351-5.509,5.792c-1.56,1.98-1.999,2.604-2.959,2.604
					c-1.5,0-2.861-2.226-2.861-5.045c0-0.72,0.208-1.509,0.509-1.989c0.42-0.6,0.551-0.714,2.411-1.974
					c1.3-0.855,3.105-2.662,5.043-4.952c1.459-1.725,3.302-3.525,4.668-5.51c-0.96,0.06-1.729,0.159-2.149,0.159
					c-2.641,0-5.151-0.918-6.711-2.058c-1.439-0.96-2.474-1.939-3.673-3.979C310.483,264.614,310.719,264.421,310.994,264.583z"/>
			</g>
			<g>
				<path d="M391.896,290.499c0,0.496-0.083,3.352-0.026,8.609c0.026,2.377-0.099,5.245-0.062,8.608
					c-0.121,1.26-0.858,1.84-4.578,1.84c-1.62,0-1.811-0.52-1.87-1.479c0.044-2.771,0.137-5.166,0.175-7.195
					c0.065-3.507-0.436-5.912-0.436-7.204c0-0.15,0.31-0.6,0.171-0.543c-2.622,1.373-5.02,2.852-7.6,4.032
					c-2.494,1.142-5.06,2.237-7.892,3.358c-0.3,2.28-0.428,2.481-1.028,2.481c-0.66,0-1.166-0.692-3.446-8.611
					c2.399-0.18,3.173-0.268,5.513-0.567c1.066-3.28-0.188-3.418-0.188-6.867c0-3.446,0.222-3.446,0.222-6.893
					c0-3.45-0.18-3.45-0.18-6.899c0-3.452,0.432-3.452,0.432-6.904s0.507-3.521-0.055-6.927c-0.094-0.562-0.707-0.084-1.276-0.084
					c-1.74,0-2.542,0.185-3.861,0.424c-0.703-0.833-0.892-1.276-0.272-2.173c1.5,0.42,2.754,0.625,4.313,0.625
					c3.298,0,3.298-0.049,6.597-0.049c3.301,0,3.301,0.262,6.602,0.262s3.408,0.597,6.617-0.177c1.859-2.04,2.381-2.498,4.241-4.418
					c2.76,1.98,3.415,2.651,6.055,4.871c0.3,0.3,0.384,0.261,0.384,0.381c0,0.24-0.016,0.349-0.376,0.349
					c-4.17,0-5.417-2.969-8.466-0.124c-2.845,2.655,0.013,4.027,0.013,7.918c0,3.891-0.162,3.891-0.162,7.782
					c0,3.893,0.231,3.894,0.286,7.787C391.796,286.606,391.896,286.606,391.896,290.499z M377.459,259.464
					c-3.135,3.907-3.221,5.974-0.086,9.881c2.516,3.135,5.561,3.234,8.076,0.099c3.135-3.908,1.576-5.348-0.337-9.978
					C383.475,255.505,379.975,256.329,377.459,259.464z M377.458,270.745c-3.104,3.777-3.19,5.862-0.085,9.639
					c2.552,3.105,5.523,3.206,8.075,0.101c3.105-3.777,1.555-5.228-0.336-9.738C383.457,266.8,380.011,267.64,377.458,270.745z
					 M377.425,281.816c-2.292,1.591-0.04,2.653-0.04,5.443s-1.688,3.315-0.141,5.637c3.359-0.54,3.19-0.709,7.87-1.729
					c1.936-4.392,2.231-5.107,0.469-9.572C384.061,277.742,380.727,279.524,377.425,281.816z M422.956,301.078
					c-2.64,1.02-3.458,1.743-5.197,5.703c-0.181,0.36-0.41,0.415-0.771,0.415c-0.359,0-1.427-0.156-2.507-0.996
					c-1.744-1.285-2.968-3.027-4.417-4.556c-1.392-1.469-2.89-3.208-4.154-5.06c-1.754,2.285-3.472,4.805-5.703,6.719
					c-2.046,1.755-4.603,2.951-7.242,4.586c-0.347,0.117-0.499-0.023-0.339-0.353c1.463-1.546,2.794-3.11,4.044-4.746
					c1.24-1.623,2.534-3.235,3.646-5.066c1.027-1.692,1.683-3.567,2.667-5.536c-1.192-2.324-2.085-4.641-2.936-7.091
					c-0.817-2.358-1.675-4.792-2.233-7.439c-0.53-2.474-0.596-4.042-0.859-6.281c-0.184-1.562-0.518-3.385-0.765-6.219
					c-0.208-0.465-0.291-0.288-0.801-0.288c-0.9,0-1.272,0.165-2.293,0.285c-0.589-0.742-0.889-0.919-0.378-1.717
					c1.32,0.36,1.771,0.335,2.671,0.335c3.749,0,3.749,0.035,7.499,0.035s3.832,0.775,7.506,0.021
					c1.561-1.86,2.035-2.508,3.655-4.368c2.46,1.98,3.023,2.785,5.363,4.705c0.6,0.54,0.988,0.655,0.988,0.955
					c0,0.54-0.819,0.896-2.679,1.616c-0.418,2.328-0.981,4.562-1.472,6.614c-0.547,2.29-1.077,4.424-1.737,6.446
					c-0.719,2.202-1.312,4.333-2.2,6.314c-0.919,2.055-2.106,4.067-3.243,5.994c2.152,2.089,4.23,3.68,6.482,4.979
					c2.08,1.2,4.34,2.342,7.308,3.379C423.269,300.676,423.265,300.884,422.956,301.078z M397.668,265.215
					c0.287,2.355,0.556,3.98,0.907,5.662c0.383,1.832,0.708,3.576,1.396,5.734c0.683,2.046,1.767,3.753,2.575,5.467
					c0.899,1.904,1.69,3.973,2.796,5.583c0.819-2.077,1.606-3.779,2.094-5.316c0.512-1.615,0.397-3.346,0.89-5.467
					c0.521-2.224,1.437-3.993,1.76-5.802c0.348-1.95,0.354-3.866,0.603-6.013c-3.095-1.057-3.286,0.333-6.54,0.007
					C400.873,264.742,400.728,264.062,397.668,265.215z"/>
			</g>
			<g>
				<path d="M445.126,309.324c1.927-1.072,3.531-2.253,5.065-3.409c1.729-1.301,3.235-2.694,4.539-4.177
					c1.36-1.549,2.639-3.173,3.621-5.01c1.324-2.46,2.012-5.453,2.671-8.56c0.596-2.804,0.949-5.786,0.949-8.888
					c0-2.025-0.312-3.948-0.544-5.702c-0.305-2.299-0.67-4.22-1.316-5.513c-0.961-2.16-2.202-3.351-3.941-3.351
					c-2.7,0-5.312,2.468-7.231,6.907c-0.821,1.936-1.621,4.107-2.1,6.286c-0.5,2.277-0.372,4.6-0.372,6.593
					c0,1.14-0.181,1.618,0.06,3.538c0.061,0.78,0.104,1.562,0.104,1.802c0,1.74-1.141,3.007-2.761,3.007
					c-1.56,0-2.911-0.925-3.811-2.845c-1.08-2.28-1.608-5.862-1.608-9.822c0-2.712,0.017-5.306,0.536-8.542
					c0.377-2.348,0.966-5.044,1.724-8.4c0.479-2.28,0.946-3.398,0.946-4.658c0-1.8-1.45-3.145-3.669-4.284
					c0.539-0.18,1.021-0.467,1.322-0.467c1.739,0,4.436,0.939,6.476,2.5s3.025,3.092,3.025,4.532c0,0.84-0.269,1.46-1.048,2.6
					c-1.457,2.033-2.654,4.717-3.541,7.573c-0.866,2.79-1.563,5.667-1.563,8.246c0,0.72,0.243,1.296,0.362,2.556
					c0.004,0.03-0.25,0.014-0.242-0.015c0.934-3.304,2.147-5.932,3.144-8.234c1.372-3.173,2.843-5.474,4.616-7.387
					c2.219-2.4,4.37-3.588,7.311-3.588c2.625,0,4.812,1.376,6.656,3.502c1.514,1.745,2.986,3.95,3.75,6.771
					c0.621,2.303,0.566,4.95,0.566,7.775c0,2.525-0.089,4.969-0.639,7.317c-0.569,2.436-1.138,4.891-2.264,7.052
					c-1.142,2.189-2.71,4.172-4.385,5.989c-1.424,1.537-3.055,2.77-4.842,3.935c-1.617,1.054-3.486,1.851-5.596,2.71
					c-1.748,0.712-3.641,1.53-5.845,2.174C444.958,309.884,444.878,309.589,445.126,309.324z"/>
			</g>
			<g>
				<path d="M498.154,275.842c-0.08,3.003-0.056,6.15-0.359,8.833c-0.377,3.319-1.027,6.251-1.69,8.475
					c-0.633,2.129-1.299,4.166-2.31,6.035c-0.989,1.831-2.149,3.655-3.602,5.389c-1.283,1.534-2.932,2.96-4.648,4.531
					c-0.281,0.148-0.567-0.169-0.476-0.475c1.437-2.761,2.623-4.859,3.394-6.939c0.87-2.349,1.479-4.621,1.988-7.485
					c0.39-2.192,0.7-4.677,0.92-7.504c0.176-2.259-0.123-4.779-0.047-7.559c0.063-2.309,0.382-4.811,0.382-7.543
					c0-4.859-0.166-6.92-0.466-10.22c3.48,1.5,4.465,1.85,7.825,3.529c3.653,0.57,3.702,0.192,7.398,0.192s3.696-0.248,7.392-0.248
					c3.698,0,3.698-0.219,7.396-0.219s3.725,0.723,7.363,0.065c1.561-1.62,2.074-1.655,3.693-3.095
					c2.16,1.44,2.77,1.645,4.689,3.205c0.54,0.42,0.718,0.731,0.718,1.031c0,0.42-0.48,0.787-2.041,1.506
					c0,1.08-0.083,1.074-0.083,2.274c0,1.74,0.264,3.956,0.384,7.076c0,0.6-0.309,0.794-0.668,0.975
					c-0.601,0.36-2.099,0.786-4.079,0.786c-1.619,0-2.049-0.314-2.107-1.274c-0.017-0.57,0.647-1.16,0.083-1.243
					c-3.828-0.564-3.884,0.132-7.754,0.132c-3.868,0-3.868-0.148-7.736-0.148c-3.87,0-3.927,0.793-7.764,0.285
					C501.998,275.683,501.769,274.455,498.154,275.842z M487.28,257.17c2.16,0.42,3.45,0.24,5.37,0.24
					c3.664,0,3.664,0.115,7.329,0.115c3.666,0,3.666-0.149,7.332-0.149c3.665,0,3.665-0.074,7.329-0.074
					c3.667,0,3.667,0.185,7.334,0.185s3.794,1.032,7.344,0.113c2.4-2.52,2.396-2.333,4.615-4.552c3.06,2.1,3.792,2.742,6.852,5.082
					c0.24,0.24,0.252,0.211,0.252,0.332c0,0.24,0.031,0.513-0.389,0.513c-3.448,0-3.448-0.288-6.896-0.288s-3.448-0.048-6.896-0.048
					c-3.449,0-3.449,0.154-6.898,0.154c-3.447,0-3.447-0.191-6.896-0.191c-3.45,0-3.45,0.248-6.9,0.248
					c-3.452,0-3.452,0.219-6.905,0.219s-3.453-0.062-6.905-0.062c-2.04,0-3.206-0.311-4.767-0.011
					C486.521,258.59,486.485,257.965,487.28,257.17z M518.716,287.49c1.261,2.82,3.188,5.112,6.068,7.453
					c1.657,1.335,3.331,2.506,5.342,3.4c1.78,0.792,3.788,1.287,6.081,1.813c1.867,0.43,4,0.725,6.341,1.024
					c0.306,0.128,0.152,0.763-0.115,0.958c-1.92,0.78-2.775,1.235-3.796,2.495c-0.66,0.84-1.385,1.884-1.625,2.784
					c-0.3,1.02-0.143,0.938-0.623,0.938c-1.439,0-6.126-2.583-8.826-4.862c-1.594-1.346-3.325-2.594-4.588-4.31
					c-1.224-1.664-2.039-3.633-2.92-5.59c-0.844-1.875-1.471-3.869-1.971-5.965c-0.018-0.058-0.31-0.013-0.323,0.045
					c-0.397,2.31-1.154,4.301-1.944,6.172c-0.872,2.064-1.773,3.989-3.181,5.622c-1.361,1.578-2.872,3.165-4.79,4.437
					c-2.346,1.575-4.885,2.747-7.916,3.73c-2.395,0.777-5.193,0.981-8.529,1.564c-0.379-0.015-0.553-0.229-0.26-0.47
					c2.286-0.966,4.277-1.887,6.019-2.816c2.201-1.174,4.012-2.351,5.561-3.612c1.794-1.46,3.301-2.983,4.572-4.797
					c1.86-2.76,3.127-6.167,3.727-9.708c-3.954-1.741-4.269-0.24-8.589-0.24c-1.26,0-2.397,0.295-3.718,0.535
					c-0.696-0.8-0.565-1.138-0.308-2.167c0.779,0.18,1.49,0.356,1.91,0.417c0.359,0.06,0.562-0.009,0.562,0.051
					c-0.266,0.059-0.82,0.142-0.549,0.145c2.73,0.033,2.732-0.285,5.462-0.285s3.007,1.392,5.551,0.401
					c0.24-2.22,0.377-4.552,0.377-6.472c0-0.96-0.1-1.4-0.219-2.84c8.219,0.72,9.054,0.86,9.054,1.7c0,0.54-0.252,0.899-1.932,1.379
					c-0.24,3.12-0.388,4.185-0.628,5.925c2.685,0.865,2.796-0.198,5.616-0.198s2.89,0.918,5.596,0.123
					c1.92-2.22,2.502-2.62,4.361-4.72c2.82,2.16,3.657,2.848,6.536,5.188c0.24,0.3,0.202,0.403,0.202,0.583
					c0,0.24-0.076,0.562-0.557,0.562c-3.488,0-3.488-0.185-6.977-0.185c-3.49,0-3.534,0.53-6.981-0.017
					C522.194,287.109,521.847,285.947,518.716,287.49z M529.347,266c-2.566-2.876-4.012,0.29-7.866,0.29
					c-3.854,0-3.854-0.114-7.707-0.114c-3.855,0-3.855,0.148-7.712,0.148s-4.637-2.524-7.542,0.01
					c-0.06,6.78-0.212,6.513-0.271,8.373c3.761,0.911,3.852,0.112,7.721,0.112c3.868,0,3.868,0.186,7.736,0.186
					c3.871,0,3.871,0.038,7.742,0.038s4.426,1.751,7.866-0.023C533.453,272.885,532.223,269.223,529.347,266z"/>
			</g>
			<g>
				<path d="M569.547,283.683c4.561,2.399,7.162,3.307,8.303,3.307c0.539,0,0.97-0.131,1.27-1.091
					c0.48-1.86,0.695-5.004,1.115-9.504c-2.32,0.294-4.643,0.917-7.208,1.5c-2.677,0.608-5.235,1.127-7.318,1.862
					c-0.24,3.24-0.122,5.162-0.122,8.222c0,2.329,0.01,4.098,0.156,5.504c0.285,2.726,0.803,3.866,2.029,4.776
					c1.319,1.02,3.178,1.74,6.838,1.74c1.926,0,3.855-0.155,5.612-0.397c2.13-0.293,4.034-0.813,5.447-1.373
					c1.32-0.54,1.54-0.743,2.32-0.743c1.079,0,2.862,0.75,4.063,1.77c1.078,0.9,1.252,1.862,1.252,2.822
					c0,1.08-0.545,2.075-1.805,2.495c-1.242,0.414-3.356,0.609-5.811,0.819c-1.811,0.155-3.822,0.292-5.86,0.292
					c-3.652,0-6.604-0.125-8.972-0.62c-3.663-0.766-5.991-2.267-7.558-4.525c-1.5-2.04-2.03-5.132-2.39-10.232
					c-0.12-1.62-0.321-3.479-0.441-8.879c-2.58,0.84-4.099,1.307-6.679,2.807c-0.779,0.48-1.26,0.604-1.86,0.604
					c-1.68,0-3.429-1.18-5.048-3.519c-1.08-1.56-1.793-3.122-1.793-4.262c0-0.18-0.021-0.867,0.099-1.347
					c1.56,2.34,3.323,3.402,5.902,3.402c1.44,0,3.657-0.55,9.177-1.931c-0.061-0.6-0.158-0.418-0.218-3.298
					c-0.12-1.92-0.181-4.151-0.421-5.171c-0.539-2.04-2.403-3.191-5.523-4.151c1.02-0.601,1.786-0.888,3.165-0.888
					c1.801,0,4.022,0.503,6.003,1.343c2.64,1.08,3.69,2.141,3.69,3.701c0,0.48,0.297,0.85-0.003,1.75
					c-0.48,1.439-0.611,1.273-1.031,5.413c4.2-1.02,5.647-1.091,6.548-1.271c4.14-0.839,4.656,0.408,8.171-1.935
					c0.181-3.96,0.296-4.558,0.296-7.498c0-3.3-0.334-4.802-1.775-6.183c-0.898-0.9-2.091-1.187-3.892-1.727
					c0.9-0.66,1.673-1.134,2.873-1.134c2.22,0,5.775,1.219,7.875,2.599c1.74,1.08,2.079,1.944,2.079,3.264
					c0,0.6,0.364,0.926-0.176,2.005c-0.72,1.56-1.418,3.742-1.898,7.762c4.199-0.9,4.311-0.805,6.591-1.945
					c0.6-0.3,1.188-0.691,1.669-0.691c1.5,0,4.054,0.762,5.733,2.021c0.9,0.66,1.334,1.467,1.334,2.427
					c0,1.2-1.188,1.549-3.108,1.549c-0.3,0-0.291,0.03-2.51-0.03c-0.66-0.06-2.529,0.248-3.489,0.248
					c-1.74,0-2.954,0.189-6.374,0.549c-0.224,2.438-0.449,4.373-0.676,6.178c-0.383,3.037-0.921,5.142-1.334,6.271
					c-0.721,2.28-1.659,3.805-3.22,4.825c-0.959,0.6-2.076,0.672-2.976,0.672c-1.261,0-2.051-0.488-2.351-2.048
					c-0.301-1.74-0.066-1.815-6.126-7.575C568.929,283.932,569.268,283.574,569.547,283.683z"/>
			</g>
			<g>
				<path d="M621.818,301.958c0,2.248-0.857,4.314-2.316,5.792c-1.463,1.48-3.52,2.375-5.771,2.375
					c-2.229,0-4.202-0.985-5.673-2.472c-1.461-1.476-2.359-3.453-2.359-5.695c0-2.22,0.88-4.213,2.35-5.683s3.462-2.469,5.683-2.469
					c2.25,0,4.242,0.985,5.704,2.448S621.818,299.708,621.818,301.958z M607.779,301.958c0,3.24,2.711,5.899,5.951,5.899
					c3.3,0,5.933-2.66,5.933-5.899c0-3.3-2.633-6.021-5.933-6.021S607.779,298.659,607.779,301.958z"/>
			</g>
		</g>
	</g>
</g>
<g id="レイヤー_1">
</g>
<g id="レイヤー_6">
</g>
<g id="レイヤー_8">
</g>
<g id="レイヤー_9">
</g>
<g id="レイヤー_7">
</g>
</svg>
